<svg width="45" height="31" viewBox="0 0 45 31" fill="none" xmlns="http://www.w3.org/2000/svg">
<path d="M45 1.54459V29.2533C45 30.0423 44.3514 30.691 43.5624 30.691H1.43754C0.648545 30.691 0 30.0423 0 29.2533V1.54459C0 0.755601 0.648545 0.113647 1.43754 0.113647H43.5624C44.3514 0.113647 45 0.755601 45 1.54459Z" fill="url(#paint0_linear_1_492)"/>
<g opacity="0.2">
<path d="M26.312 9.19013C26.2147 9.08071 26.154 8.9835 26.0324 9.03817C25.9109 9.09284 25.9109 9.17185 25.7832 9.07465C25.6556 8.97744 25.7102 8.86186 25.4245 8.75859C25.1388 8.65523 25.078 8.5945 24.7679 8.55196C24.458 8.50942 24.233 8.46688 24.2148 8.46688C24.1966 8.46688 24.2817 8.52155 24.1601 8.58237C24.0385 8.64319 23.9412 8.65532 23.8197 8.57631C23.6981 8.49729 23.7042 8.47295 23.4976 8.49123C23.2909 8.50951 23.1693 8.55811 23.0782 8.57024C22.987 8.58237 23.0782 8.56418 22.9383 8.46688C22.7985 8.36959 22.8958 8.31492 22.6526 8.33311C22.4095 8.35139 22.3061 8.36264 22.2453 8.3296C22.1845 8.29664 22.2574 8.12639 22.0204 8.05344C21.7834 7.98049 21.7347 8.03525 21.6131 8.01697C21.4916 7.99878 21.4976 7.96837 21.1512 7.94402C20.8047 7.91967 20.8229 7.97443 20.5858 8.04738C20.3488 8.12033 20.288 8.12033 20.0691 8.1082C19.8503 8.09607 19.905 8.22975 19.7713 8.24803C19.6375 8.26623 19.4248 8.13255 19.4005 8.05353C19.3761 7.97452 19.5828 7.88944 19.4005 7.81649C19.2181 7.74354 18.8777 7.60371 18.8108 7.62805C18.7439 7.6524 18.7804 7.76182 18.6588 7.79214C18.5373 7.82255 18.3793 7.82256 18.1908 7.73748C18.0024 7.6524 17.9294 7.6103 17.7289 7.62524C17.5283 7.64018 17.4189 7.701 17.2486 7.71313C17.0784 7.72526 16.9751 7.65231 17.0906 7.59764C17.2061 7.54298 17.352 7.3788 17.352 7.29978C17.352 7.22077 17.4371 7.05052 17.2426 7.03233C17.0481 7.01414 17.0116 7.14782 16.8292 7.03233C16.6469 6.91684 16.4098 6.91078 16.3429 6.94725C16.276 6.98373 16.276 7.04455 16.1606 7.06274C16.0451 7.08093 16.0876 7.18429 15.9478 7.22077C15.8079 7.25724 15.8262 7.14782 15.504 7.17823C15.1818 7.20864 14.8718 7.25118 14.7928 7.34232C14.7138 7.43346 14.8111 7.53682 14.6408 7.61584C14.4706 7.69485 14.0816 7.63403 14.033 7.70091C13.9844 7.7678 14.2458 7.99878 14.0695 8.10214C13.8932 8.20549 13.7837 8.02919 13.3765 8.10214C12.9692 8.17508 13.0179 8.16296 12.866 8.2541C12.714 8.34524 12.6836 8.28451 12.5925 8.41213C12.5013 8.53974 12.2277 8.65532 12.0393 8.65532C11.8508 8.65532 11.7718 8.53983 11.5286 8.63713C11.2855 8.73442 11.322 8.80122 10.939 8.7709C10.556 8.74048 10.398 8.74655 10.3251 8.79524C10.2521 8.84384 10.2521 8.96548 10.0637 9.02015C9.87524 9.07482 9.58344 9.17212 9.51049 9.15392C9.43754 9.13573 9.18837 9.25728 9.01813 9.27548C8.84788 9.29376 8.75068 9.28154 8.69601 9.21466C8.64125 9.14777 8.58052 9.03228 8.6656 9.06876C8.75067 9.10523 8.82362 9.15383 8.97559 9.14777C9.12755 9.14171 9.29779 9.02015 9.26132 8.95327C9.22484 8.88638 9.25525 8.78918 8.95739 8.71623C8.65953 8.64328 8.53191 8.65541 8.307 8.49131C8.08209 8.32722 8.39208 8.2178 7.80251 8.27853C7.21285 8.33935 7.05482 8.40008 6.81778 8.57639C6.58074 8.7527 6.53205 8.90466 6.28895 9.11736C6.04584 9.33014 6.13092 9.39088 5.82699 9.54284C5.52307 9.6948 5.47446 9.62185 5.38323 9.85283C5.292 10.0838 5.23127 10.3513 5.41971 10.3999C5.60815 10.4486 5.80265 10.3635 5.89994 10.327C5.99724 10.2905 6.07019 10.3574 6.08232 10.4668C6.09444 10.5763 6.10051 10.7586 6.22215 10.7829C6.3437 10.8072 6.59902 10.637 6.5869 10.4608C6.57477 10.2845 6.53223 10.1629 6.65378 9.9866C6.77533 9.81029 6.85435 9.68267 6.98205 9.62185C7.10967 9.56103 7.28598 9.4517 7.21909 9.59144C7.15221 9.73128 7.03065 9.89537 7.11573 10.0352C7.20081 10.175 7.39531 10.0777 7.444 10.2176C7.49261 10.3574 7.37712 10.4911 7.34671 10.5398C7.3163 10.5884 7.41966 10.6492 7.27983 10.7465C7.13999 10.8437 7.04885 10.9471 6.89689 11.0626C6.74492 11.178 6.2951 11.2571 6.19174 11.2328C6.08838 11.2085 5.91822 11.2328 5.90601 11.093C5.89388 10.9531 6.05797 10.8012 5.88781 10.7343C5.71757 10.6674 5.52913 10.7586 5.47446 10.9957C5.41971 11.2327 5.33463 11.2753 5.19488 11.3907C5.05505 11.5062 5.17054 11.8588 4.76334 11.9256C4.35606 11.9925 4.12508 11.8952 4.15549 12.0411C4.1859 12.187 4.44122 12.0958 4.44729 12.339C4.45335 12.5821 4.51417 12.6673 4.33786 12.7159C4.16155 12.7645 4.11901 12.6733 3.88197 12.7523C3.64493 12.8314 3.65706 13.1292 3.60846 13.2568C3.55985 13.3844 3.53551 13.4999 3.69354 13.5547C3.85156 13.6094 4.10689 13.7067 4.29532 13.6276C4.48376 13.5486 4.59318 13.5365 4.61753 13.3906C4.64188 13.2447 4.70261 13.1536 4.83031 13.1292C4.95793 13.1049 5.0431 12.959 5.11596 12.8739C5.18891 12.7888 5.11596 12.8192 5.3044 12.8253C5.49283 12.8314 5.66914 12.6308 5.73594 12.6855C5.80282 12.7401 6.00339 12.8557 6.13101 12.9773C6.25862 13.0988 6.43493 13.1353 6.40452 13.3177C6.37411 13.5 6.36198 13.7115 6.48354 13.6574C6.60509 13.6034 6.56255 13.4392 6.64156 13.3602C6.72058 13.2812 6.82394 13.3541 6.81181 13.2143C6.79968 13.0745 6.59296 13.038 6.48354 12.9104C6.37411 12.7828 6.28903 12.6429 6.42272 12.6855C6.5564 12.728 6.81172 12.8435 6.83607 12.9408C6.86041 13.0381 7.08532 13.2386 7.10958 13.4271C7.13393 13.6155 7.26761 13.7858 7.32843 13.6885C7.38925 13.5912 7.33449 13.5182 7.46826 13.494C7.60194 13.4696 7.55334 13.3724 7.62629 13.2447C7.69924 13.1171 7.89981 13.3055 7.97275 13.0684C8.0457 12.8314 7.88161 12.7497 8.0639 12.6203C8.24627 12.491 8.32528 12.4059 8.37995 12.5214C8.43462 12.6369 8.57445 12.7584 8.64134 12.6369C8.70822 12.5153 8.51979 12.4788 8.67781 12.3876C8.83584 12.2965 8.97567 12.187 8.93314 12.3451C8.8906 12.5031 8.82978 12.6064 8.9392 12.7159C9.04862 12.8253 9.37074 12.8922 9.19452 12.9894C9.01821 13.0867 8.76298 13.0319 8.52585 13.1353C8.28881 13.2386 8.25234 13.1899 8.19151 13.3845C8.13069 13.579 8.12463 13.6399 8.3252 13.6399C8.52576 13.6399 8.61699 13.5 8.67166 13.6763C8.72633 13.8526 8.7142 14.2477 8.62912 14.2842C8.54404 14.3207 8.50757 14.266 8.13069 14.3085C7.75382 14.3511 7.77201 14.4423 7.46809 14.2903C7.16416 14.1383 7.09121 13.9499 6.98179 14.1383C6.87236 14.3267 6.95138 14.4226 6.71434 14.3747C6.4773 14.3267 6.64745 14.2235 6.3314 14.1444C6.01534 14.0654 5.95452 14.0898 5.95452 13.9499C5.95452 13.8101 5.99706 13.6277 5.7478 13.6095C5.49855 13.5913 5.06094 13.6946 4.70226 13.798C4.34358 13.9013 4.41652 13.7736 4.00317 13.9195C3.58983 14.0654 3.3345 14.114 3.29196 14.3389C3.24942 14.5639 3.10959 14.6915 3.01845 14.8131C2.92731 14.9347 2.87861 15.4697 2.85436 15.7978C2.83001 16.1261 2.91518 15.9741 2.82395 16.2173C2.73272 16.4604 2.98804 16.8434 3.0914 16.9467C3.19476 17.05 3.52909 17.3782 3.74179 17.4025C3.95457 17.4269 3.93629 17.3235 4.26456 17.3721C4.59283 17.4207 4.58677 17.2323 4.9211 17.3175C5.25544 17.4025 5.37699 17.4634 5.57149 17.5667C5.766 17.6701 5.78428 17.7552 5.78428 18.0044C5.78428 18.2537 5.79641 18.0652 5.97272 18.4178C6.14902 18.7703 6.45901 19.0986 6.27664 19.4025C6.09427 19.7064 6.01525 19.7611 6.13074 20.0468C6.24623 20.3326 6.56844 20.91 6.60491 21.2018C6.64139 21.4936 6.55024 21.5118 6.58672 21.6881C6.62319 21.8644 6.95147 22.0589 7.24933 21.9374C7.54719 21.8158 7.63833 21.8097 7.88152 21.5848C8.12463 21.3599 8.36782 21.5302 8.5502 21.062C8.73257 20.594 8.67175 20.5393 8.75076 20.3508C8.82978 20.1624 9.30395 19.8889 9.32214 19.5485C9.34033 19.2081 9.21878 18.9528 9.26132 18.6246C9.30386 18.2963 9.33427 18.0107 9.65032 17.7493C9.96638 17.4879 10.0393 17.7432 10.2582 17.2508C10.477 16.7585 10.7384 16.6369 10.4952 16.643C10.252 16.6491 9.77794 16.8436 9.57737 16.7341C9.37681 16.6247 9.04854 16.1263 8.98165 15.8953C8.91477 15.6643 8.93911 15.7798 8.82362 15.4515C8.70814 15.1233 8.59871 14.9531 8.55011 14.8254C8.5015 14.6978 8.47109 14.4729 8.61699 14.6553C8.76289 14.8376 8.90273 15.1111 9.09723 15.5306C9.29173 15.95 9.40722 16.2722 9.57746 16.3391C9.74771 16.406 9.80237 16.485 10.0577 16.3816C10.313 16.2782 10.4042 16.2661 10.6474 16.1323C10.8905 15.9986 11.0364 15.9743 11.2127 15.798C11.389 15.6217 11.7901 15.5488 11.3464 15.3786C10.9027 15.2084 10.7507 15.3057 10.6231 15.1111C10.4955 14.9166 10.2888 14.7221 10.4772 14.7526C10.6656 14.783 10.5927 14.8376 10.8055 14.8802C11.0183 14.9227 11.1702 14.8269 11.2857 14.9812C11.4012 15.1355 11.5957 15.2449 11.7781 15.1598C11.9604 15.0747 12.0334 15.0261 12.2279 15.1354C12.4224 15.2448 12.2948 15.5548 12.5866 15.6399C12.8784 15.725 12.927 15.4089 12.9878 15.8101C13.0486 16.2114 13.1641 16.5821 13.2674 16.6612C13.3707 16.7402 13.2127 17.1049 13.5409 17.0077C13.8692 16.9104 13.9664 16.9226 13.9664 16.5822C13.9664 16.2418 13.9542 16.1567 14.1305 16.0351C14.3068 15.9135 14.5499 15.792 14.6593 15.6642C14.7687 15.5366 14.7018 15.4575 14.9207 15.4819C15.1395 15.5062 15.6805 16.1141 15.6562 16.2417C15.6318 16.3693 15.6075 16.418 15.7108 16.497C15.8142 16.576 15.8081 16.6004 15.8871 16.886C15.9661 17.1717 15.9479 17.1291 16.1971 17.3967C16.4464 17.6641 16.7989 17.8525 16.7685 17.658C16.7381 17.4635 16.6165 17.4878 16.5071 17.1778C16.3977 16.8678 16.2701 16.5882 16.416 16.6673C16.5619 16.7463 16.5193 16.8618 16.6713 16.8861C16.8233 16.9104 16.8476 16.7341 16.9631 16.6794C17.0786 16.6247 17.2853 16.181 17.1211 15.9865C16.957 15.792 16.7868 15.6582 16.957 15.5974C17.1273 15.5366 17.0482 15.5793 17.2488 15.6156C17.4494 15.6521 17.3887 15.5548 17.6318 15.488C17.8749 15.4211 18.2275 15.3117 18.4159 15.0686C18.6044 14.8255 18.811 14.7526 18.7563 14.4303C18.7017 14.1082 18.6287 13.9684 18.5132 13.8832C18.3977 13.7982 18.3917 13.7373 18.4949 13.7009C18.5983 13.6644 18.8657 13.6583 18.7138 13.5793C18.5618 13.5003 18.6348 13.5428 18.4585 13.5003C18.2821 13.4578 18.0937 13.5428 18.2517 13.3969C18.4098 13.251 18.5313 13.1295 18.5313 13.1295C18.5313 13.1295 18.4888 13.1599 18.5921 13.2693C18.6955 13.3787 18.7624 13.3301 18.811 13.3058C18.8596 13.2814 19.0055 13.1782 19.0238 13.2937C19.0421 13.4091 18.8353 13.4942 18.9569 13.5368C19.0784 13.5793 19.1879 13.4699 19.1393 13.6887C19.0907 13.9076 19.1879 14.1081 19.2912 13.9987C19.3946 13.8893 19.5465 13.5672 19.5161 13.4334C19.4857 13.2997 19.3824 13.3665 19.5222 13.1234C19.662 12.8803 19.662 12.7101 19.8505 12.7405C20.0389 12.7709 20.2213 12.5885 20.2942 12.5156C20.3672 12.4426 20.6772 12.2724 20.7258 12.0657C20.7744 11.859 20.7501 11.8287 20.8169 11.5916C20.8838 11.3545 21.0297 11.3545 20.8473 11.2451C20.665 11.1357 20.5251 11.16 20.4948 11.0384C20.4644 10.9168 20.9811 10.3272 21.206 10.236C21.4309 10.1449 21.5889 10.1874 21.7409 10.2542C21.8929 10.3211 21.9415 10.3879 22.0813 10.3028C22.2211 10.2178 22.3123 10.1691 22.3913 10.163C22.4703 10.1569 22.6892 9.99275 22.7803 10.0657C22.8714 10.1386 22.8837 10.2177 22.9931 10.1691C23.1025 10.1205 23.2484 9.86513 23.297 9.95628C23.3456 10.0474 23.3335 10.1568 23.1997 10.3332C23.0659 10.5095 22.9505 10.5399 22.7803 10.6796C22.6101 10.8195 22.5433 10.9653 22.5433 11.093C22.5433 11.2206 22.4947 11.6461 22.5615 11.6522C22.6283 11.6583 22.6465 11.6401 22.8228 11.4152C22.9992 11.1903 23.0903 11.1781 23.2058 11.093C23.3213 11.0079 23.3638 10.9045 23.3821 10.704C23.4004 10.5034 23.2727 10.4547 23.4611 10.3514C23.6495 10.2481 23.8745 10.1386 24.0629 10.1691C24.2513 10.1995 24.2088 10.1934 24.3486 10.0536C24.4885 9.91374 24.5857 9.82259 24.7316 9.83472C24.8775 9.84685 25.1145 9.87726 25.151 9.80431C25.1875 9.73136 25.157 9.67063 25.1631 9.56727C25.1692 9.46391 25.157 9.42137 25.2969 9.3849C25.4367 9.34842 25.4306 9.29982 25.4974 9.27548C25.5643 9.25113 25.6069 9.32408 25.7163 9.36662C25.8257 9.40916 26.0932 9.41522 26.154 9.33621C26.2147 9.25702 26.312 9.19013 26.312 9.19013Z" fill="#9FA6A9"/>
<path d="M20.975 12.4969C21.0544 12.5262 21.206 12.6489 21.2972 12.6428C21.3883 12.6367 21.437 12.7583 21.3641 12.7704C21.2911 12.7826 21.048 12.898 21.048 12.898C21.048 12.898 20.9751 12.8069 20.9325 12.898C20.89 12.9892 20.8657 13.0561 20.8779 13.1108C20.89 13.1655 20.9752 13.3236 20.9265 13.4026C20.8779 13.4816 20.811 13.5242 20.811 13.6215C20.811 13.7187 20.8718 13.822 20.7866 13.8646C20.7016 13.9071 20.6164 13.9193 20.5435 13.9436C20.4706 13.9679 20.4159 13.974 20.3855 14.0409C20.3551 14.1078 20.2821 14.205 20.1302 14.1989C19.9782 14.1928 19.9782 14.0713 19.8384 14.1868C19.6986 14.3023 19.6925 14.3692 19.6195 14.3387C19.5466 14.3083 19.6013 14.2658 19.6195 14.1503C19.6377 14.0348 19.3703 14.0652 19.6135 13.9315C19.8566 13.7977 19.8566 13.7795 20.0208 13.7552C20.1849 13.7308 20.2761 13.8098 20.3429 13.6701C20.4098 13.5302 20.3429 13.4756 20.4766 13.4695C20.6104 13.4634 20.6955 13.5243 20.7198 13.3722C20.7441 13.2202 20.7258 13.0926 20.7198 12.9953C20.7137 12.898 20.6772 12.8069 20.7866 12.7704C20.8961 12.734 20.9082 12.8008 20.9204 12.7158C20.9324 12.6306 20.8595 12.4544 20.975 12.4969Z" fill="#9FA6A9"/>
<path d="M18.5314 15.7915C18.6469 15.8098 18.7016 16.0164 18.6652 16.1015C18.6287 16.1866 18.5922 16.2839 18.6956 16.3021C18.7989 16.3204 18.8719 16.3325 18.8719 16.4055C18.8719 16.4784 18.9144 16.3264 18.9934 16.5209C19.0725 16.7154 18.9995 16.7458 19.0907 16.8917C19.1819 17.0376 19.2913 17.1106 19.1637 17.1835C19.0361 17.2565 19.1333 17.3355 18.9996 17.293C18.8659 17.2504 18.9206 17.2747 18.8537 17.1471C18.7868 17.0195 18.7443 17.1227 18.6835 17.1167C18.6227 17.1106 18.6045 17.1106 18.6531 17.0255C18.7017 16.9404 18.7261 16.9465 18.6714 16.8492C18.6167 16.7519 18.7018 16.6364 18.6228 16.6182C18.5438 16.6 18.5194 16.7337 18.3797 16.8188C18.2399 16.9039 18.0332 16.9282 18.0393 16.8978C18.0454 16.8674 18.1244 16.8249 18.2521 16.6668C18.3797 16.5088 18.4588 16.606 18.4345 16.3629C18.4101 16.1198 18.325 16.1866 18.404 16.0164C18.4828 15.8463 18.5314 15.7915 18.5314 15.7915Z" fill="#9FA6A9"/>
<path d="M18.1423 17.1715C18.2344 17.2635 18.3551 17.2384 18.3187 17.3295C18.2822 17.4207 18.1739 17.4329 18.2341 17.524C18.2943 17.6153 18.3491 17.7489 18.4281 17.7368C18.5071 17.7247 18.501 17.6639 18.6955 17.6639C18.89 17.6639 19.0116 17.6213 19.0238 17.7003C19.0359 17.7793 18.9387 17.7854 18.811 17.9009C18.6834 18.0164 18.5557 18.1319 18.6591 18.2048C18.7624 18.2778 18.805 18.4115 18.7685 18.4601C18.732 18.5087 18.6955 18.5574 18.7806 18.6182C18.8657 18.679 19.273 18.6607 19.1757 18.8066C19.0784 18.9525 18.8413 19.0315 18.5921 19.0376C18.3428 19.0436 18.5432 18.9707 18.0388 18.9221C17.5344 18.8735 17.4493 19.0011 17.0968 18.831C16.7443 18.6607 16.5132 18.8066 16.3187 18.4966C16.1242 18.1866 16.2032 18.3386 15.96 18.0164C15.7169 17.6943 15.8324 17.6943 15.6257 17.5666C15.419 17.4389 15.2427 17.2566 15.3826 17.2566C15.5224 17.2566 15.4555 17.0925 15.8871 17.4511C16.3186 17.8097 16.2031 17.7915 16.5193 18.0043C16.8353 18.217 16.9387 18.2413 17.0542 18.217C17.1697 18.1927 17.3399 18.217 17.2305 18.0772C17.1211 17.9374 17.0602 17.7611 17.1515 17.7307C17.2427 17.7003 17.2365 17.8523 17.3885 17.6882C17.5405 17.5241 17.5405 17.4815 17.6742 17.4268C17.808 17.3721 17.7351 17.4268 17.8627 17.3478C17.9904 17.2688 18.039 17.0681 18.1423 17.1715Z" fill="#9FA6A9"/>
<path d="M19.814 17.8766C19.8801 17.9616 19.9903 18.0711 20.0389 18.1623C20.0875 18.2536 20.1787 18.0852 20.3549 18.0903C20.5313 18.0954 20.7926 18.1926 20.9021 18.2413C21.0115 18.29 21.1999 18.3203 21.3154 18.4784C21.4309 18.6364 21.516 18.5453 21.5221 18.7033C21.5282 18.8613 21.5525 18.8431 21.6558 18.9343C21.7592 19.0254 21.7774 19.1957 21.595 19.1227C21.4126 19.0498 21.358 18.8006 21.1635 18.8248C20.969 18.8492 21.048 18.9039 20.896 18.9343C20.744 18.9647 20.6772 18.9099 20.4948 18.8978C20.3124 18.8857 20.1787 18.9464 20.2638 18.7823C20.3489 18.6182 20.4097 18.6121 20.1118 18.4905C19.814 18.369 19.6985 18.4297 19.6985 18.3021C19.6985 18.1745 19.7471 18.1622 19.6316 18.0528C19.5161 17.9434 19.4796 17.8644 19.5526 17.8096C19.6255 17.755 19.7714 17.8218 19.814 17.8766Z" fill="#9FA6A9"/>
<path d="M20.1666 19.6272C20.3672 19.7305 20.4462 19.9372 20.5435 19.9007C20.6408 19.8642 20.6043 19.8034 20.6772 19.5846C20.7501 19.3658 20.7562 19.1409 20.8474 19.2321C20.9386 19.3233 20.8535 19.5012 20.9994 19.5582C21.1453 19.6151 21.1757 19.6577 21.2061 19.8278C21.2365 19.9981 21.2669 19.9433 21.4189 20.1196C21.5708 20.2959 21.7073 20.2655 21.7333 20.4661C21.7593 20.6667 22.0146 20.8734 22.0267 21.08C22.0389 21.2867 22.0753 21.4325 21.9234 21.6939C21.7714 21.9553 21.7106 22.089 21.662 22.1985C21.6134 22.3079 21.4675 22.3626 21.3095 22.3626C21.1514 22.3626 21.0602 22.2957 20.963 22.3201C20.8657 22.3444 20.7989 22.466 20.6834 22.3809C20.5679 22.2958 20.501 22.1864 20.4646 22.1195C20.4281 22.0526 20.4099 21.8277 20.2397 21.852C20.0695 21.8764 20.0938 21.9615 19.9904 21.852C19.887 21.7426 19.96 21.6515 19.6561 21.6028C19.3521 21.5542 19.2731 21.5298 19.1454 21.5602C19.0178 21.5907 18.884 21.6332 18.7442 21.7426C18.6044 21.852 18.3855 21.7974 18.264 21.852C18.1424 21.9067 17.96 22.0284 17.8263 21.9554C17.6925 21.8825 17.7412 21.846 17.7473 21.6758C17.7533 21.5056 17.7412 21.6212 17.6561 21.3294C17.571 21.0376 17.6075 21.0801 17.5285 20.9404C17.4495 20.8005 17.3887 20.8674 17.4981 20.6668C17.6075 20.4663 17.571 20.4237 17.6318 20.3568C17.6926 20.29 17.7473 20.3751 17.954 20.2353C18.1607 20.0955 18.2214 20.1563 18.4099 20.0833C18.5983 20.0104 18.6408 19.7308 18.7563 19.6456C18.8718 19.5606 18.9022 19.4937 18.9873 19.4937C19.0724 19.4937 19.1697 19.5423 19.3216 19.6031C19.4736 19.6639 19.4432 19.67 19.5709 19.5301C19.6985 19.3903 19.5709 19.2566 19.8019 19.2809C20.0328 19.3052 20.1179 19.2688 20.1483 19.4024C20.1787 19.536 20.1666 19.6272 20.1666 19.6272Z" fill="#9FA6A9"/>
<path d="M24.3852 22.4963C24.5067 22.3382 24.5675 22.3199 24.525 22.1376C24.4825 21.9552 24.4946 21.8122 24.6526 21.9749C24.8107 22.1376 24.987 22.2288 25.1085 22.2349C25.2301 22.2409 25.5219 22.3322 25.224 22.5571C24.9261 22.782 24.9809 22.624 24.7438 22.9583C24.5067 23.2926 24.6891 23.2987 24.4034 23.4628C24.1176 23.6269 23.8016 23.6998 23.8624 23.554C23.9232 23.4081 23.8928 23.4081 24.1542 23.2136C24.4156 23.0191 24.5857 22.8732 24.5857 22.7091C24.5857 22.5449 24.3852 22.4963 24.3852 22.4963Z" fill="#9FA6A9"/>
<path d="M9.86928 20.8551C9.75986 20.6971 9.75985 20.6484 9.74773 20.3932C9.7356 20.1378 9.65043 20.0163 9.74773 19.8704C9.84502 19.7245 10.1003 19.4814 10.1976 19.3111C10.2948 19.141 10.3191 18.7762 10.3799 19.1044C10.4407 19.4327 10.6352 19.6272 10.3434 20.0649C10.0517 20.5025 9.86928 20.8551 9.86928 20.8551Z" fill="#9FA6A9"/>
<path d="M4.02167 11.81C3.99733 11.7614 4.10675 11.6033 4.10675 11.6033C4.10675 11.6033 4.24052 11.5303 4.20405 11.2629C4.16757 10.9954 4.14322 11.1534 4.04602 10.8981C3.94872 10.6428 3.80291 10.6914 3.94872 10.5212C4.09462 10.351 4.26478 10.0958 4.30125 10.3024C4.33773 10.509 4.25265 10.6428 4.33773 10.7401C4.4228 10.8374 4.59305 10.8574 4.69026 11.0176C4.78755 11.1777 5.17655 11.2385 4.88476 11.4451C4.59296 11.6519 4.45928 11.5181 4.34986 11.664C4.24043 11.81 4.02167 11.81 4.02167 11.81Z" fill="#9FA6A9"/>
<path d="M3.6326 11.6155C3.8271 11.5061 3.8982 11.5304 3.88695 11.3358C3.8757 11.1413 4.00947 10.9711 3.80275 10.9589C3.59612 10.9468 3.5353 11.0684 3.51096 11.1534C3.48661 11.2385 3.48661 11.2629 3.54743 11.3479C3.60825 11.433 3.62038 11.5547 3.59603 11.6154C3.57186 11.6763 3.6326 11.6155 3.6326 11.6155Z" fill="#9FA6A9"/>
<path d="M2.92745 9.71907C3.08548 9.60965 3.3408 9.70694 3.35293 9.47588C3.36506 9.2449 3.42588 9.18408 3.07335 9.15982C2.72082 9.13548 2.72082 9.13548 2.50197 9.15982C2.28312 9.18417 2.07649 8.96532 2.24665 9.29359C2.41681 9.62186 2.44115 9.69481 2.57492 9.71907C2.70869 9.74333 2.92745 9.71907 2.92745 9.71907Z" fill="#9FA6A9"/>
<path d="M27.4001 8.84372C27.2103 8.6268 26.9016 8.61274 27.1447 8.47897C27.3879 8.34529 27.5338 8.26012 27.7648 8.21152C27.9958 8.16292 28.239 8.26012 28.6159 8.35742C28.9927 8.45471 29.6006 8.36955 29.8803 8.45471C30.1598 8.53979 30.2936 8.71004 30.3787 8.69782C30.4638 8.68569 30.707 8.43037 30.9501 8.43037C31.1932 8.43037 31.3148 8.39389 31.8132 8.45471C32.3117 8.51553 32.798 8.53979 32.8101 8.66143C32.8222 8.78299 32.8222 8.84381 33.0046 8.84381C33.187 8.84381 33.345 8.73438 33.4544 8.90463C33.5638 9.07487 33.734 9.19642 33.7097 9.06265C33.6854 8.92897 33.5638 8.81955 33.6611 8.77086C33.7584 8.72225 34.038 8.69791 34.111 8.72225C34.1839 8.7466 34.4149 8.78307 34.4878 8.77086C34.5608 8.75873 34.5122 8.63709 34.7553 8.71004C34.9984 8.78299 35.0349 8.96536 35.0836 8.97749C35.1322 8.98962 35.2416 8.79054 35.2537 8.65915C35.2658 8.52766 35.3753 8.52766 35.1565 8.35751C34.9377 8.18726 35.1353 7.98063 35.2918 8.05358C35.4482 8.12653 35.351 8.22383 35.509 8.38185C35.6671 8.53988 35.6914 8.67365 35.8008 8.62496C35.9103 8.57636 35.8494 8.36964 35.9953 8.52766C36.1412 8.68569 36.1777 8.60606 36.3114 8.57899C36.4452 8.55192 36.3357 8.46684 36.4938 8.55192C36.6518 8.637 36.9192 8.73429 36.7247 8.89232C36.5302 9.05035 36.2384 9.02609 36.0318 9.14764C35.8251 9.2692 35.8859 9.23272 35.8251 9.37862C35.7643 9.52452 35.7886 9.53665 35.5455 9.59747C35.3023 9.65829 35.2295 9.6096 35.2416 9.81632C35.2537 10.023 35.2295 10.0473 35.1443 10.1567C35.0592 10.2661 35.1078 10.3634 35.2051 10.412C35.3024 10.4606 35.4117 10.3756 35.4117 10.5215C35.4117 10.6674 35.5941 10.7768 35.8372 10.7768C36.0803 10.7768 36.1897 10.8376 36.3356 11.0199C36.4815 11.2023 36.2748 11.2144 36.518 11.4454C36.7611 11.6763 36.9922 11.7858 37.0287 11.5791C37.0651 11.3725 37.0287 11.3238 37.0651 11.0807C37.1016 10.8376 37.3326 10.8133 37.211 10.5944C37.0895 10.3756 36.9071 10.2784 37.0773 10.1567C37.2475 10.0352 37.0408 9.92284 37.3326 9.86351C37.6244 9.80419 37.8189 9.7555 37.9404 9.97434C38.062 10.1932 37.9283 10.3391 38.0499 10.4363C38.1714 10.5336 38.5483 10.3877 38.6212 10.3026C38.6942 10.2175 38.9008 10.2297 38.9738 10.5457C39.0467 10.8618 39.0953 10.9469 39.2047 10.9834C39.3142 11.0199 39.3142 11.0928 39.4479 11.2144C39.5816 11.3359 39.8369 11.5304 39.4479 11.5669C39.0589 11.6034 38.7428 11.5548 38.5969 11.6885C38.451 11.8222 38.4389 11.7249 38.5361 11.9073C38.6334 12.0897 38.5604 11.9681 38.6334 12.1991C38.7063 12.4301 39.0711 12.4301 38.8035 12.5881C38.536 12.7462 38.5847 12.7826 38.4267 12.734C38.2686 12.6854 38.2322 12.3363 38.0498 12.6203C37.8674 12.9043 37.8917 13.0137 37.7337 13.0988C37.5757 13.1838 37.5635 13.0137 37.4177 13.2811C37.2718 13.5486 37.5027 13.5729 37.1746 13.8769C36.8463 14.1808 36.6883 14.0349 36.6639 14.2902C36.6396 14.5455 36.7977 14.8495 36.7125 14.9103C36.6274 14.9711 36.6396 14.9589 36.5424 14.7887C36.4451 14.6185 36.4938 14.5213 36.1534 14.4969C35.813 14.4726 35.8373 14.3875 35.7035 14.5334C35.5698 14.6793 35.7521 14.7279 35.3753 14.6793C34.9984 14.6307 34.9498 14.1809 34.8768 14.7036C34.8039 15.2264 34.7918 15.2872 34.9133 15.4331C35.0349 15.579 35.3631 15.9315 35.509 15.7735C35.6549 15.6154 35.4726 15.4209 35.7522 15.4817C36.0318 15.5425 36.1048 15.4695 36.0562 15.6276C36.0076 15.7856 35.6307 15.8099 35.9346 15.9558C36.2385 16.1017 36.4938 15.9315 36.5181 16.1625C36.5425 16.3935 36.4816 16.4543 36.4938 16.588C36.5059 16.7217 36.5667 16.819 36.8463 16.819C37.1259 16.819 37.1137 16.7096 37.1867 16.8555C37.2596 17.0014 37.4906 16.9284 37.5879 16.7217C37.6852 16.515 37.7582 16.284 37.904 16.5272C38.0499 16.7703 38.0741 16.819 38.22 16.7217C38.3659 16.6244 38.3659 16.6244 38.3659 16.6244C38.3659 16.6244 38.5239 16.4785 38.6577 16.6001C38.7915 16.7216 39.0102 16.5879 39.0589 16.7581C39.1075 16.9282 39.0346 16.9526 39.2413 17.0134C39.448 17.0742 39.6911 16.9769 39.8127 17.1471C39.9342 17.3173 39.606 17.2079 39.9586 17.4145C40.3111 17.6213 40.4205 17.6455 40.3963 17.7793C40.3719 17.9131 40.4692 17.9373 40.7853 18.0103C41.1013 18.0832 41.0527 18.0467 41.3081 18.2412C41.5634 18.4357 41.77 18.3507 41.8552 18.448C41.9403 18.5453 42.0862 18.5695 41.9646 18.837C41.843 19.1044 41.7215 19.0437 41.6242 19.2503C41.5269 19.457 41.4418 19.5056 41.4662 19.8704C41.4905 20.2351 41.5026 20.1987 41.4297 20.381C41.3567 20.5634 41.0893 20.5877 40.8705 20.7214C40.6516 20.8552 40.6395 20.7458 40.4936 21.1104C40.3477 21.4752 40.4328 21.2807 40.3112 21.5967C40.1897 21.9128 40.3598 21.7548 40.0073 21.9371C39.6547 22.1195 39.521 21.9615 39.4845 22.0709C39.448 22.1803 39.6912 22.0953 39.4359 22.3262C39.1806 22.5572 39.0712 22.618 38.9131 22.7152C38.7551 22.8124 38.6578 22.922 38.6943 23.1286C38.7308 23.3352 38.9131 23.3231 38.7064 23.5176C38.4997 23.7121 38.4146 23.5176 38.3539 23.8336C38.2931 24.1497 38.2323 24.0039 38.2931 24.3321C38.3539 24.6603 38.6699 24.6603 38.3781 24.8427C38.0863 25.0251 37.7703 25.1102 37.5879 24.6726C37.4055 24.2349 37.4055 24.0647 37.4055 23.7729C37.4055 23.4811 37.3691 23.7 37.515 23.2015C37.6609 22.7031 37.4177 22.8733 37.5393 22.3262C37.6609 21.7791 37.6366 21.1956 37.7582 20.7944C37.8797 20.3932 38.1472 20.5026 37.8797 20.1379C37.6123 19.7732 37.5637 19.834 37.3327 19.5908C37.1017 19.3477 37.2476 19.3963 37.1138 19.1045C36.9801 18.8127 36.895 18.8371 36.7856 18.6182C36.6761 18.3994 36.6153 18.4723 36.7247 18.1077C36.8342 17.7429 36.5911 17.7551 36.8342 17.6457C37.0773 17.5363 37.0409 17.2688 37.0044 17.1715C36.9679 17.0742 37.1868 17.0378 36.8464 16.9892C36.506 16.9406 36.4087 17.05 36.2871 16.8433C36.1656 16.6365 36.2628 16.6002 36.0076 16.4785C35.7522 16.357 35.4726 16.357 35.3754 16.2597C35.2781 16.1624 35.2781 16.1624 35.2781 16.1624C35.2781 16.1624 35.4604 16.0894 35.0471 16.0408C34.6337 15.9922 34.3298 16.0408 34.1231 15.749C33.9164 15.4572 33.9651 15.6275 33.9164 15.36C33.8678 15.0926 33.8069 15.0926 33.6124 14.9223C33.4179 14.7522 33.4179 14.6549 33.2356 14.5819C33.0532 14.509 33.0167 14.5333 33.0167 14.5698C33.0167 14.6063 33.0046 14.7522 33.1747 14.8858C33.345 15.0196 33.3571 15.1412 33.3571 15.2019C33.3571 15.2627 33.1261 15.3357 33.1261 15.3357C33.1261 15.3357 33.1261 15.2627 33.0532 15.0926C32.9802 14.9223 32.9559 14.8372 32.81 14.6306C32.6641 14.424 32.6276 14.3996 32.6276 14.3996C32.6276 14.3996 32.4574 14.1322 32.1657 13.7797C31.8739 13.4271 31.7888 13.6459 31.7888 13.2448C31.7888 12.8435 31.8618 12.8435 31.7888 12.564C31.7159 12.2844 31.5457 12.1506 31.6915 12.102C31.8374 12.0534 31.9225 11.9804 31.655 11.7495C31.3876 11.5185 31.2903 11.64 31.1931 11.324C31.0958 11.0079 31.3025 11.0322 30.9013 10.8863C30.5001 10.7404 30.4515 10.6188 30.2691 10.5338C30.0867 10.4487 29.9773 10.4001 29.9773 10.4001C29.9773 10.4001 30.0138 10.3636 29.5761 10.3271C29.1384 10.2907 29.1871 10.084 28.8588 10.2177C28.5305 10.3515 28.4819 10.3757 28.4819 10.3757C28.4819 10.3757 28.6643 10.1569 28.3482 10.1812C28.0322 10.2056 28.105 10.2785 28.0929 10.4244C28.0808 10.5703 28.1294 10.7405 27.9105 10.8257C27.6917 10.9107 27.3756 11.1417 27.4972 10.8986C27.6187 10.6554 27.9227 10.4853 27.8132 10.4244C27.7038 10.3636 27.4728 10.5581 27.4485 10.3636C27.4242 10.1691 27.4728 10.0718 27.2175 10.0597C26.9622 10.0476 26.7556 9.93813 26.9501 9.85297C27.1446 9.76789 27.3269 9.80436 27.3878 9.59764C27.4486 9.39093 27.8984 9.34232 27.3999 9.35454C26.9015 9.36667 26.6826 9.36667 26.7434 9.26946C26.8043 9.17217 26.7799 8.98988 27.1324 9.03848C27.4851 9.08682 27.4851 8.94093 27.4001 8.84372Z" fill="#9FA6A9"/>
</g>
<path d="M7.46203 19.2037C7.40851 19.0833 7.34171 18.9831 7.25479 18.9028C7.16118 18.8226 7.0609 18.7624 6.94049 18.7156C6.82685 18.6754 6.69976 18.6555 6.57275 18.6555C6.43899 18.6555 6.31198 18.6755 6.19834 18.7156C6.18498 18.7223 6.16494 18.729 6.1515 18.7357C6.05789 18.7826 5.96429 18.8359 5.89072 18.9029C5.79712 18.9831 5.73024 19.0834 5.67671 19.2037C5.62318 19.3175 5.59647 19.4578 5.59647 19.605V20.9557C5.59647 21.1095 5.62318 21.2432 5.67671 21.3635C5.73015 21.4839 5.79703 21.5775 5.89072 21.6644C5.97765 21.7447 6.08461 21.8048 6.19825 21.8449C6.3119 21.885 6.43899 21.9051 6.57267 21.9051C6.63287 21.9051 6.69976 21.8984 6.75987 21.8917C6.82008 21.8783 6.88688 21.8649 6.9404 21.8449C7.06081 21.8048 7.1611 21.7447 7.2547 21.6644C7.34162 21.5775 7.40851 21.4839 7.46194 21.3635C7.51547 21.2432 7.54219 21.1095 7.54219 20.9557V19.605C7.54228 19.4578 7.51556 19.3173 7.46203 19.2037ZM6.96053 20.9489C6.96053 21.0893 6.92045 21.1895 6.85357 21.2699C6.78668 21.3368 6.70644 21.3768 6.60615 21.3835H6.57275C6.45243 21.3835 6.35874 21.3434 6.28527 21.2699C6.21838 21.1895 6.1783 21.0894 6.1783 20.9489V19.6183C6.1783 19.5915 6.1783 19.5715 6.18498 19.5514C6.18498 19.5448 6.19166 19.5381 6.19166 19.5381C6.19834 19.4379 6.23174 19.3642 6.28527 19.2974C6.29862 19.2841 6.31198 19.2706 6.32534 19.264C6.39223 19.2037 6.47247 19.1836 6.57275 19.1836C6.68649 19.1836 6.78 19.2171 6.85365 19.2974C6.92054 19.3776 6.96062 19.4846 6.96062 19.6183L6.96053 20.9489Z" fill="#CECECF"/>
<path d="M9.01327 18.6819L8.36464 19.2502V19.8787L9.01327 19.3104V21.878H9.6017V18.6819H9.01327Z" fill="#CECECF"/>
<path d="M10.6783 18.6819V19.7116H11.2333V19.2101H12.0825L11.0394 21.878H11.6746L12.711 19.2101V18.6819H10.6783Z" fill="#CECECF"/>
<path d="M15.1182 19.2035C15.0647 19.0832 14.9979 18.9829 14.911 18.9027C14.8174 18.8224 14.7171 18.7623 14.5967 18.7155C14.4764 18.6753 14.356 18.6554 14.229 18.6554C14.0952 18.6554 13.9682 18.6754 13.8545 18.7155C13.7342 18.7623 13.6339 18.8224 13.5469 18.9027C13.4533 18.9829 13.3798 19.0832 13.3329 19.2035C13.2795 19.3173 13.2527 19.4576 13.2527 19.6048V20.9555C13.2527 21.1093 13.2795 21.243 13.3329 21.3633C13.3798 21.4837 13.4533 21.5773 13.5469 21.6642C13.6339 21.7445 13.7341 21.8046 13.8545 21.8447C13.9682 21.8848 14.0953 21.9049 14.229 21.9049C14.356 21.9049 14.4764 21.8848 14.5967 21.8447C14.717 21.8046 14.8174 21.7445 14.911 21.6642C14.9979 21.5773 15.0648 21.4837 15.1182 21.3633C15.1717 21.243 15.1985 21.1093 15.1985 20.9555V19.6048C15.1984 19.4576 15.1717 19.3172 15.1182 19.2035ZM14.6101 20.9488C14.6101 21.0891 14.5767 21.1894 14.5098 21.2698C14.4362 21.3432 14.3426 21.3834 14.229 21.3834C14.1086 21.3834 14.015 21.3432 13.9415 21.2698C13.8747 21.1894 13.8345 21.0892 13.8345 20.9488V19.6182C13.8345 19.4844 13.8747 19.3774 13.9415 19.2972C14.015 19.217 14.1086 19.1835 14.229 19.1835C14.3426 19.1835 14.4362 19.217 14.5098 19.2972C14.5767 19.3775 14.6101 19.4844 14.6101 19.6182V20.9488Z" fill="#CECECF"/>
<path d="M20.0125 20.5141C19.9725 20.3938 19.9056 20.2935 19.8253 20.2132C19.7451 20.133 19.6582 20.0729 19.5579 20.026C19.4576 19.986 19.3505 19.9658 19.2436 19.9658C19.2035 19.9658 19.1633 19.9658 19.1233 19.9725C19.0832 19.9792 19.043 19.9859 19.0096 20.0059L19.2302 19.5714L19.6715 18.682H19.0363L18.9695 18.8158V18.8225L18.8892 18.9829L18.361 20.0661C18.3543 20.0795 18.3476 20.0929 18.3409 20.1063C18.2741 20.24 18.2206 20.367 18.1738 20.494C18.1203 20.6277 18.0935 20.7749 18.0935 20.922C18.0935 21.0758 18.1136 21.2162 18.1671 21.3432C18.2206 21.4636 18.2874 21.5705 18.3811 21.6508C18.448 21.7177 18.5148 21.7645 18.6017 21.8046H18.6084C18.6352 21.8179 18.6686 21.8314 18.6953 21.8447C18.8156 21.8848 18.9494 21.9049 19.0899 21.9049C19.2302 21.9049 19.3573 21.8848 19.4776 21.8381C19.6046 21.7979 19.705 21.7311 19.7986 21.6441L19.8053 21.6374C19.8922 21.5505 19.9591 21.457 20.0059 21.3299C20.0594 21.2095 20.0861 21.0691 20.0861 20.9086C20.0861 20.7615 20.0594 20.6344 20.0125 20.5141ZM19.0899 20.4473C19.2169 20.4473 19.3171 20.4874 19.3908 20.5743C19.4644 20.6545 19.5044 20.7749 19.5044 20.9153C19.5044 21.0623 19.4644 21.1827 19.3841 21.263C19.3039 21.3432 19.2103 21.3833 19.0899 21.3833C18.9695 21.3833 18.8692 21.3432 18.7889 21.263C18.7154 21.1827 18.6753 21.0623 18.6753 20.9153C18.6753 20.7682 18.7154 20.6479 18.7889 20.5676C18.8692 20.4874 18.9695 20.4473 19.0899 20.4473Z" fill="#CECECF"/>
<path d="M22.5937 20.3535C22.5669 20.2131 22.4866 20.0727 22.3596 19.9525C22.2927 19.8855 22.2126 19.8321 22.1122 19.7919C22.0119 19.7518 21.8983 19.7318 21.7578 19.7318C21.6509 19.7318 21.5572 19.7519 21.4703 19.7853C21.3834 19.8187 21.3232 19.8521 21.2831 19.8923V19.2102H22.5736V18.682H20.7482V20.4874H21.2831C21.3032 20.4273 21.3433 20.367 21.4034 20.3135C21.4435 20.2734 21.4904 20.2466 21.5572 20.24C21.5906 20.2266 21.6308 20.2266 21.6709 20.2266C21.8179 20.2266 21.9183 20.2801 21.9717 20.3736C22.0319 20.4739 22.0653 20.6145 22.0653 20.8016C22.0653 20.9019 22.052 20.9955 22.0385 21.0825C22.0385 21.0958 22.0319 21.1025 22.0252 21.1093C22.0252 21.116 22.0252 21.116 22.0252 21.116C22.0051 21.1828 21.9784 21.2363 21.9383 21.2764C21.8647 21.3499 21.7778 21.3834 21.6574 21.3834C21.5371 21.3834 21.4434 21.3499 21.3833 21.2764C21.3231 21.2095 21.283 21.116 21.2697 20.9889H20.6812C20.6946 21.1026 20.7146 21.2162 20.7481 21.3299C20.7815 21.4503 20.8417 21.5505 20.942 21.6509C21.0089 21.7244 21.1092 21.778 21.2296 21.8314C21.3432 21.8848 21.4904 21.905 21.6575 21.905C21.7177 21.905 21.7645 21.905 21.8113 21.8916H21.818C21.9183 21.8849 22.0052 21.8648 22.0855 21.8315C22.1991 21.778 22.2927 21.7177 22.3663 21.651C22.48 21.5305 22.5535 21.4035 22.5937 21.2699C22.6271 21.1361 22.6472 20.9823 22.6472 20.8018C22.6472 20.6478 22.6271 20.5006 22.5937 20.3535Z" fill="#CECECF"/>
<path d="M23.2021 18.6819V19.7116H23.7571V19.2101H24.6063L23.5699 21.878H24.1984L25.2415 19.2101V18.6819H23.2021Z" fill="#CECECF"/>
<path d="M27.6752 19.2236C27.6284 19.0966 27.5549 18.9963 27.468 18.9094C27.3744 18.8291 27.2741 18.7622 27.1471 18.7222C27.0267 18.6753 26.8997 18.6553 26.7592 18.6553C26.6188 18.6553 26.4851 18.6753 26.3648 18.7222C26.2444 18.769 26.1374 18.8358 26.0438 18.916C25.9569 19.0029 25.89 19.11 25.8365 19.2303C25.7831 19.3573 25.7563 19.4977 25.7563 19.6515C25.7563 19.8053 25.7831 19.9391 25.8299 20.0526C25.8767 20.1664 25.9436 20.2667 26.0171 20.3468C26.0973 20.4271 26.1909 20.4939 26.2912 20.534C26.3915 20.5809 26.4984 20.601 26.6055 20.601C26.6456 20.601 26.6857 20.601 26.7258 20.5943C26.7659 20.5876 26.8061 20.5742 26.8395 20.5608L26.1775 21.878H26.8126L27.488 20.5007C27.5616 20.3536 27.6218 20.2065 27.6752 20.0728C27.7287 19.9324 27.7554 19.792 27.7554 19.6448C27.7554 19.4843 27.7287 19.3439 27.6752 19.2236ZM27.0534 19.9925C26.9731 20.0728 26.8795 20.1129 26.7592 20.1129C26.6322 20.1129 26.5319 20.0728 26.4583 19.9925C26.378 19.9056 26.3446 19.7919 26.3446 19.6515C26.3446 19.4977 26.3847 19.3841 26.4583 19.3038C26.5385 19.2236 26.6388 19.1834 26.7592 19.1834C26.8795 19.1834 26.9731 19.2236 27.0534 19.3038C27.1336 19.3841 27.167 19.4977 27.167 19.6515C27.1671 19.7986 27.1336 19.9123 27.0534 19.9925Z" fill="#CECECF"/>
<path d="M31.5066 18.6819L30.8513 19.2502V19.8787L31.5066 19.3104V21.878H32.0884V18.6819H31.5066Z" fill="#CECECF"/>
<path d="M33.1649 18.6819V19.7116H33.7265V19.2101H34.569L33.5326 21.878H34.1678L35.2042 19.2101V18.6819H33.1649Z" fill="#CECECF"/>
<path d="M36.6084 18.6819L35.9598 19.2502V19.8787L36.6084 19.3104V21.878H37.1968V18.6819H36.6084Z" fill="#CECECF"/>
<path d="M40.1923 19.2236C40.1455 19.0966 40.072 18.9963 39.9851 18.9094C39.8915 18.8291 39.7911 18.7622 39.6641 18.7222C39.5438 18.6753 39.4167 18.6553 39.2764 18.6553C39.1359 18.6553 39.0022 18.6753 38.8818 18.7222C38.7615 18.769 38.6545 18.8358 38.5608 18.916C38.4739 19.0029 38.4003 19.11 38.3536 19.2303C38.3001 19.3573 38.2733 19.4977 38.2733 19.6515C38.2733 19.8053 38.3001 19.9391 38.3469 20.0526C38.3938 20.1664 38.4606 20.2667 38.5341 20.3468C38.6144 20.4271 38.7013 20.4939 38.8082 20.534C38.9085 20.5809 39.0155 20.601 39.1225 20.601C39.1625 20.601 39.2027 20.601 39.2428 20.5943C39.2829 20.5876 39.323 20.5742 39.3565 20.5608L38.6945 21.878H39.3297L40.0051 20.5007C40.0786 20.3536 40.1388 20.2065 40.1923 20.0728C40.2457 19.9324 40.2725 19.792 40.2725 19.6448C40.2726 19.4843 40.2459 19.3439 40.1923 19.2236ZM39.5705 19.9925C39.4903 20.0728 39.3967 20.1129 39.2764 20.1129C39.1494 20.1129 39.049 20.0728 38.9754 19.9925C38.8952 19.9056 38.8618 19.7919 38.8618 19.6515C38.8618 19.4977 38.9019 19.3841 38.9754 19.3038C39.0557 19.2236 39.1559 19.1834 39.2764 19.1834C39.3967 19.1834 39.4903 19.2236 39.5705 19.3038C39.6508 19.3841 39.6842 19.4977 39.6842 19.6515C39.6842 19.7986 39.6508 19.9123 39.5705 19.9925Z" fill="#CECECF"/>
<path d="M28.4241 27.1004C28.384 27.0135 28.3304 26.9399 28.2702 26.8797C28.2034 26.8196 28.1298 26.7727 28.0429 26.746C27.9559 26.7125 27.8623 26.6992 27.7687 26.6992C27.6685 26.6992 27.5815 26.7125 27.4946 26.746C27.4077 26.7728 27.3341 26.8196 27.2672 26.8797C27.2004 26.9399 27.1469 27.0135 27.1067 27.1004C27.0733 27.1873 27.0532 27.2876 27.0532 27.3945V28.3841C27.0532 28.4978 27.0733 28.5981 27.1067 28.685C27.1469 28.772 27.2004 28.8455 27.2672 28.9057C27.3341 28.9659 27.4077 29.0126 27.4946 29.0393C27.5815 29.0728 27.6685 29.0862 27.7687 29.0862C27.8623 29.0862 27.9559 29.0728 28.0429 29.0393C28.1298 29.0126 28.2034 28.9659 28.2702 28.9057C28.3304 28.8455 28.3839 28.772 28.4241 28.685C28.4642 28.5981 28.4776 28.4978 28.4776 28.3841V27.3945C28.4776 27.2877 28.4642 27.1874 28.4241 27.1004ZM28.0496 28.3842C28.0496 28.4845 28.0229 28.558 27.9761 28.6182C27.9225 28.6717 27.8558 28.6984 27.7688 28.6984C27.6819 28.6984 27.615 28.6717 27.5616 28.6182C27.5081 28.558 27.4813 28.4845 27.4813 28.3842V27.4013C27.4813 27.3078 27.5081 27.2275 27.5616 27.1673C27.6151 27.1138 27.6819 27.087 27.7688 27.087C27.8558 27.087 27.9226 27.1138 27.9761 27.1673C28.0229 27.2275 28.0496 27.3077 28.0496 27.4013V28.3842Z" fill="#CECECF"/>
<path d="M30.3365 27.9495C30.3164 27.8425 30.2562 27.7421 30.1626 27.6485C30.1158 27.6018 30.0557 27.5616 29.9821 27.5348C29.9085 27.5014 29.8216 27.488 29.7213 27.488C29.6478 27.488 29.5743 27.5014 29.5141 27.5281C29.4472 27.5482 29.4005 27.575 29.3737 27.6084V27.1003H30.3232V26.7191H28.9792V28.043H29.3737C29.3871 27.9962 29.4206 27.9561 29.4607 27.916C29.5074 27.8758 29.5676 27.8492 29.6612 27.8492C29.7615 27.8492 29.8351 27.8893 29.8818 27.9629C29.922 28.0364 29.942 28.1368 29.942 28.2771C29.942 28.3507 29.942 28.4175 29.9287 28.4778C29.9153 28.5379 29.8886 28.5847 29.8551 28.6248C29.8016 28.6783 29.7348 28.6983 29.6479 28.6983C29.5609 28.6983 29.4874 28.6783 29.4473 28.6248C29.4005 28.5713 29.3737 28.5044 29.3604 28.4108H28.9324C28.9391 28.4977 28.9525 28.578 28.9793 28.6649C29.006 28.7451 29.0528 28.8254 29.1264 28.8989C29.1732 28.9457 29.2467 28.9925 29.3337 29.0325C29.4206 29.066 29.5275 29.0861 29.6479 29.0861C29.7682 29.0861 29.8752 29.066 29.9622 29.0325C30.0424 28.9925 30.116 28.9457 30.1694 28.8922C30.2497 28.812 30.3098 28.7183 30.3366 28.6181C30.3633 28.5245 30.3767 28.4041 30.3767 28.2771C30.3766 28.1635 30.3632 28.0564 30.3365 27.9495Z" fill="#CECECF"/>
<path d="M31.56 26.4718L30.6172 29.3136H31.0183L31.9611 26.4718H31.56Z" fill="#CECECF"/>
<path d="M32.8505 26.7191L32.3691 27.1338V27.5951L32.8505 27.1805V29.066H33.2784V26.7191H32.8505Z" fill="#CECECF"/>
<path d="M34.7227 26.7191L34.2413 27.1338V27.5951L34.7227 27.1805V29.066H35.1507V26.7191H34.7227Z" fill="#CECECF"/>
<path d="M35.9732 27.9228V28.3239H36.9895V27.9228H35.9732Z" fill="#CECECF"/>
<path d="M38.8217 27.1004C38.7816 27.0135 38.7281 26.9399 38.6612 26.8797C38.601 26.8196 38.5208 26.7727 38.4339 26.746C38.347 26.7125 38.26 26.6992 38.1664 26.6992C38.0661 26.6992 37.9792 26.7125 37.8923 26.746C37.8054 26.7728 37.7318 26.8196 37.6649 26.8797C37.598 26.9399 37.5446 27.0135 37.5044 27.1004C37.4644 27.1873 37.4509 27.2876 37.4509 27.3945V28.3841C37.4509 28.4978 37.4643 28.5981 37.5044 28.685C37.5445 28.772 37.598 28.8455 37.6649 28.9057C37.7318 28.9659 37.8054 29.0126 37.8923 29.0393C37.9792 29.0728 38.0661 29.0862 38.1664 29.0862C38.26 29.0862 38.347 29.0728 38.4339 29.0393C38.5208 29.0126 38.601 28.9659 38.6612 28.9057C38.7281 28.8455 38.7816 28.772 38.8217 28.685C38.8551 28.5981 38.8751 28.4978 38.8751 28.3841V27.3945C38.8751 27.2877 38.8551 27.1874 38.8217 27.1004ZM38.4472 28.3842C38.4472 28.4845 38.4203 28.558 38.3669 28.6182C38.3202 28.6717 38.2466 28.6984 38.1663 28.6984C38.0794 28.6984 38.0059 28.6717 37.9591 28.6182C37.9056 28.558 37.8789 28.4845 37.8789 28.3842V27.4013C37.8789 27.3078 37.9056 27.2275 37.9591 27.1673C38.0059 27.1138 38.0794 27.087 38.1663 27.087C38.2466 27.087 38.3202 27.1138 38.3669 27.1673C38.4204 27.2275 38.4472 27.3077 38.4472 27.4013V28.3842Z" fill="#CECECF"/>
<path d="M40.6938 27.1004C40.6537 27.0135 40.6002 26.9399 40.54 26.8797C40.4731 26.8196 40.3996 26.7727 40.3127 26.746C40.2258 26.7125 40.1321 26.6992 40.0385 26.6992C39.9382 26.6992 39.8513 26.7125 39.7643 26.746C39.6774 26.7728 39.6038 26.8196 39.537 26.8797C39.4702 26.9399 39.4166 27.0135 39.3765 27.1004C39.3431 27.1873 39.323 27.2876 39.323 27.3945V28.3841C39.323 28.4978 39.3431 28.5981 39.3765 28.685C39.4165 28.772 39.4701 28.8455 39.537 28.9057C39.6038 28.9659 39.6774 29.0126 39.7643 29.0393C39.8513 29.0728 39.9382 29.0862 40.0385 29.0862C40.1321 29.0862 40.2257 29.0728 40.3127 29.0393C40.3996 29.0126 40.4732 28.9659 40.54 28.9057C40.6002 28.8455 40.6537 28.772 40.6938 28.685C40.7338 28.5981 40.7472 28.4978 40.7472 28.3841V27.3945C40.7473 27.2877 40.7339 27.1874 40.6938 27.1004ZM40.3194 28.3842C40.3194 28.4845 40.2925 28.558 40.2458 28.6182C40.1924 28.6717 40.1255 28.6984 40.0385 28.6984C39.9517 28.6984 39.8847 28.6717 39.8313 28.6182C39.7779 28.558 39.7511 28.4845 39.7511 28.3842V27.4013C39.7511 27.3078 39.7779 27.2275 39.8313 27.1673C39.8848 27.1138 39.9517 27.087 40.0385 27.087C40.1255 27.087 40.1924 27.1138 40.2458 27.1673C40.2926 27.2275 40.3194 27.3077 40.3194 27.4013V28.3842Z" fill="#CECECF"/>
<path d="M5.93085 22.7006V22.9146H6.25182V23.9243H6.49256V22.9146H6.81353V22.7006H5.93085Z" fill="#CECECF"/>
<path d="M7.89664 23.0215C7.88328 22.9814 7.87651 22.948 7.85656 22.9145C7.8432 22.8811 7.8164 22.8476 7.783 22.8143C7.74292 22.7742 7.69607 22.7407 7.64264 22.7206C7.58911 22.7006 7.5289 22.6872 7.46211 22.6872C7.38854 22.6872 7.32834 22.7005 7.2749 22.7206C7.22146 22.7407 7.17462 22.7742 7.13454 22.8143C7.10114 22.8477 7.07433 22.8811 7.06097 22.9145C7.04085 22.948 7.03417 22.9814 7.0209 23.0215C7.01422 23.0617 7.01422 23.1085 7.00754 23.1553V23.4695C7.01422 23.5162 7.01422 23.5564 7.0209 23.5966C7.03426 23.6366 7.04094 23.6768 7.06097 23.7102C7.07433 23.737 7.10105 23.7704 7.13454 23.8038C7.17462 23.844 7.22146 23.8774 7.2749 23.8974C7.32843 23.9242 7.38863 23.9309 7.46211 23.9309C7.52899 23.9309 7.5892 23.9242 7.64264 23.8974C7.69607 23.8774 7.74292 23.844 7.783 23.8038C7.8164 23.7704 7.8432 23.7369 7.85656 23.7102C7.8766 23.6768 7.88328 23.6366 7.89664 23.5966C7.90332 23.5564 7.91 23.5162 7.91 23.4695V23.1553C7.91 23.1084 7.90332 23.0617 7.89664 23.0215ZM7.66927 23.4562C7.66927 23.4963 7.66259 23.523 7.65591 23.5497C7.65591 23.5765 7.64923 23.5966 7.64255 23.6099C7.63587 23.6233 7.62242 23.6366 7.60906 23.65C7.5957 23.6701 7.57566 23.6901 7.54894 23.6968C7.52223 23.7101 7.49542 23.7168 7.46202 23.7168C7.42862 23.7168 7.39522 23.7101 7.36842 23.6968C7.34838 23.6901 7.32157 23.67 7.30162 23.65C7.29494 23.6366 7.28149 23.6233 7.27481 23.6099C7.26813 23.5966 7.26145 23.5764 7.26145 23.5497C7.25477 23.5229 7.24809 23.4963 7.24809 23.4562V23.162C7.24809 23.1286 7.25477 23.0951 7.26145 23.0683C7.26145 23.0415 7.26813 23.0215 7.27481 23.0082C7.28149 22.9949 7.29485 22.9814 7.30162 22.9681C7.32166 22.948 7.34847 22.9347 7.36842 22.9213C7.39522 22.9079 7.42862 22.9013 7.46202 22.9013C7.49542 22.9013 7.52223 22.9079 7.54894 22.9213C7.57566 22.9347 7.59579 22.9481 7.60906 22.9681C7.62242 22.9814 7.63587 22.9949 7.64255 23.0082C7.64923 23.0215 7.65591 23.0416 7.65591 23.0683C7.66259 23.0952 7.66927 23.1286 7.66927 23.162V23.4562Z" fill="#CECECF"/>
<path d="M9.04672 22.9347C9.03337 22.8878 9.00665 22.8477 8.96648 22.8143C8.93308 22.7742 8.89292 22.7475 8.83948 22.7273C8.79263 22.7072 8.73252 22.7005 8.67231 22.7005H8.19753V23.9242H8.43826V23.4629H8.67222C8.73243 23.4629 8.79254 23.4495 8.83939 23.4294C8.89292 23.4093 8.93299 23.3826 8.96639 23.3491C9.00656 23.3157 9.03328 23.2756 9.04664 23.2288C9.06676 23.1819 9.07336 23.1286 9.07336 23.0817C9.07344 23.0283 9.06685 22.9815 9.04672 22.9347ZM8.79263 23.2021C8.75923 23.2289 8.71239 23.249 8.65886 23.249H8.43826V22.9146H8.65886C8.71239 22.9146 8.75915 22.928 8.79263 22.9548C8.81935 22.9882 8.83948 23.0283 8.83948 23.0818C8.83948 23.1286 8.81935 23.1687 8.79263 23.2021Z" fill="#CECECF"/>
<path d="M10.1233 22.9146V22.7006H9.32092V23.9243H10.1233V23.7103H9.56166V23.4094H10.043V23.1954H9.56166V22.9146H10.1233Z" fill="#CECECF"/>
<path d="M10.9524 23.6702C10.919 23.7036 10.8721 23.717 10.812 23.717C10.7786 23.717 10.7518 23.7103 10.7251 23.7036C10.6984 23.6903 10.6782 23.6769 10.6582 23.6569C10.6515 23.6435 10.6381 23.6302 10.6315 23.6101C10.6248 23.5968 10.6181 23.5766 10.6114 23.5499C10.6114 23.5231 10.6047 23.4965 10.6047 23.4564C10.6047 23.4162 10.5981 23.3694 10.5981 23.3093C10.5981 23.2492 10.6047 23.2023 10.6047 23.1622C10.6047 23.1288 10.6114 23.0953 10.6114 23.0686C10.6181 23.0418 10.6248 23.0218 10.6315 23.0085C10.6381 22.9951 10.6515 22.975 10.6582 22.9683C10.6782 22.9483 10.6984 22.9283 10.7251 22.9216C10.7518 22.9082 10.7786 22.9015 10.812 22.9015C10.8721 22.9015 10.919 22.9149 10.9524 22.9484C10.9858 22.9818 11.0059 23.0219 11.0192 23.0754H11.26C11.2399 22.9484 11.1864 22.848 11.1062 22.7879C11.0259 22.7209 10.9256 22.6875 10.812 22.6875C10.7451 22.6875 10.6782 22.7009 10.6248 22.721C10.5779 22.7411 10.5245 22.7745 10.4844 22.8146C10.4576 22.848 10.4309 22.8815 10.4109 22.9149C10.3975 22.9484 10.3841 22.9818 10.3775 23.0219C10.3708 23.062 10.3641 23.1089 10.3641 23.1556V23.4698C10.3641 23.5166 10.3708 23.5568 10.3775 23.5969C10.3841 23.637 10.3976 23.6772 10.4109 23.7106C10.431 23.7374 10.4577 23.7708 10.4844 23.8042C10.5245 23.8443 10.578 23.8777 10.6248 23.8978C10.6783 23.9246 10.7451 23.9313 10.812 23.9313C10.9256 23.9313 11.026 23.8978 11.1062 23.8377C11.1864 23.7708 11.2399 23.6772 11.26 23.5434H11.0192C11.0059 23.5967 10.9858 23.6367 10.9524 23.6702Z" fill="#CECECF"/>
<path d="M12.3699 23.1553C12.3699 23.1085 12.3632 23.0617 12.3566 23.0215C12.3499 22.9814 12.3364 22.948 12.3165 22.9145C12.3031 22.8811 12.2764 22.8476 12.2496 22.8143C12.2095 22.7742 12.1627 22.7407 12.1092 22.7206C12.0557 22.7006 11.9955 22.6872 11.922 22.6872C11.8485 22.6872 11.7883 22.7005 11.7348 22.7206C11.6813 22.7407 11.6345 22.7742 11.5944 22.8143C11.561 22.8477 11.5409 22.8811 11.5208 22.9145C11.5075 22.948 11.494 22.9814 11.4874 23.0215C11.4807 23.0617 11.4741 23.1085 11.4741 23.1553C11.4741 23.202 11.4674 23.2489 11.4674 23.3091C11.4674 23.3692 11.4741 23.4228 11.4741 23.4696C11.4741 23.5163 11.4807 23.5565 11.4874 23.5967C11.4941 23.6367 11.5075 23.6769 11.5208 23.7103C11.5409 23.7371 11.5609 23.7705 11.5944 23.8039C11.6345 23.8441 11.6813 23.8775 11.7348 23.8975C11.7883 23.9243 11.8485 23.931 11.922 23.931C11.9956 23.931 12.0558 23.9243 12.1092 23.8975C12.1627 23.8775 12.2095 23.8441 12.2496 23.8039C12.2764 23.7705 12.3031 23.737 12.3165 23.7103C12.3365 23.6769 12.3499 23.6367 12.3566 23.5967C12.3632 23.5565 12.3699 23.5163 12.3699 23.4696C12.3699 23.4228 12.3766 23.3693 12.3766 23.3091C12.3766 23.2489 12.3699 23.202 12.3699 23.1553ZM12.1292 23.4562C12.1292 23.4963 12.1225 23.523 12.1225 23.5497C12.1158 23.5765 12.1092 23.5966 12.1025 23.6099C12.0958 23.6233 12.0891 23.6366 12.0758 23.65C12.0556 23.6701 12.0357 23.6901 12.0089 23.6968C11.9822 23.7101 11.9553 23.7168 11.9219 23.7168C11.8885 23.7168 11.8618 23.7101 11.835 23.6968C11.8083 23.6901 11.7882 23.67 11.7681 23.65C11.7548 23.6366 11.7481 23.6233 11.7414 23.6099C11.7281 23.5966 11.7281 23.5764 11.7213 23.5497C11.7146 23.5229 11.7146 23.4963 11.7079 23.4562V23.162C11.7146 23.1286 11.7146 23.0951 11.7213 23.0683C11.728 23.0415 11.728 23.0215 11.7414 23.0082C11.7481 22.9949 11.7548 22.9814 11.7681 22.9681C11.7882 22.948 11.8082 22.9347 11.835 22.9213C11.8618 22.9079 11.8885 22.9013 11.9219 22.9013C11.9553 22.9013 11.9822 22.9079 12.0089 22.9213C12.0357 22.9347 12.0557 22.9481 12.0758 22.9681C12.0891 22.9814 12.0958 22.9949 12.1025 23.0082C12.1092 23.0215 12.1158 23.0416 12.1225 23.0683C12.1225 23.0952 12.1292 23.1286 12.1292 23.162C12.1359 23.202 12.1359 23.2489 12.1359 23.309C12.1359 23.3692 12.1359 23.416 12.1292 23.4562Z" fill="#CECECF"/>
<path d="M13.3595 22.7006V23.4495L12.8714 22.7006H12.6574V23.9243H12.8982V23.1687L13.3862 23.9243H13.6001V22.7006H13.3595Z" fill="#CECECF"/>
<path d="M15.2385 23.4563C15.2251 23.4229 15.2051 23.3894 15.1783 23.3627C15.1649 23.3493 15.1515 23.3359 15.1382 23.3293C15.1248 23.3159 15.1115 23.3092 15.0847 23.2959C15.185 23.2356 15.2385 23.1554 15.2385 23.035C15.2385 22.9816 15.2252 22.9347 15.2118 22.8946C15.1918 22.8545 15.165 22.8211 15.1316 22.7878C15.1049 22.7676 15.0848 22.7543 15.0513 22.7409C15.0447 22.7342 15.0313 22.7276 15.0179 22.7209C14.9644 22.7075 14.9177 22.7008 14.8575 22.7008H14.3694V23.9245H14.8776C14.9377 23.9245 14.9912 23.9112 15.0314 23.8977C15.0782 23.8777 15.1183 23.8576 15.1517 23.8242C15.1851 23.7974 15.2119 23.7573 15.2253 23.7172C15.2453 23.6771 15.2521 23.6237 15.2521 23.5702C15.2518 23.5298 15.2451 23.4897 15.2385 23.4563ZM14.6032 22.9147H14.8372C14.8506 22.9147 14.864 22.9147 14.8707 22.9214C14.9108 22.9214 14.9308 22.928 14.9577 22.9482C14.9844 22.9749 14.9977 23.0084 14.9977 23.0551C14.9977 23.0953 14.9844 23.1288 14.9577 23.1554C14.9242 23.1821 14.8908 23.1955 14.8372 23.1955H14.6032V22.9147ZM14.971 23.6703C14.9443 23.697 14.9041 23.7103 14.8574 23.7103H14.6033V23.4095H14.8574C14.9042 23.4095 14.9443 23.4229 14.971 23.4497C14.9978 23.4764 15.0179 23.5099 15.0179 23.5566C15.0178 23.6034 14.9977 23.6435 14.971 23.6703Z" fill="#CECECF"/>
<path d="M16.0408 22.7006H15.8536L15.4056 23.9243H15.653L15.7266 23.7036H16.1612L16.2347 23.9243H16.4822L16.0408 22.7006ZM15.7934 23.503L15.9538 23.0617L16.101 23.503H15.7934Z" fill="#CECECF"/>
<path d="M17.3781 22.7006V23.4495L16.89 22.7006H16.6827V23.9243H16.9168V23.1687L17.4049 23.9243H17.6189V22.7006H17.3781Z" fill="#CECECF"/>
<path d="M18.5015 23.182L18.9026 22.7006H18.6151L18.1805 23.2288V22.7006H17.9464V23.9243H18.1805V23.5565L18.341 23.3625L18.6552 23.9242H18.936L18.5015 23.182Z" fill="#CECECF"/>
<path d="M31.2726 15.0379C31.2392 15.0714 31.1923 15.0847 31.1322 15.0847C31.0987 15.0847 31.072 15.078 31.0453 15.0646C31.0185 15.0579 30.9984 15.0378 30.9784 15.0244C30.9717 15.0111 30.9584 14.9976 30.9517 14.9777C30.945 14.9643 30.9383 14.9442 30.9316 14.9176C30.9316 14.8907 30.925 14.8573 30.925 14.8239C30.925 14.7838 30.9183 14.737 30.9183 14.6768C30.9183 14.6166 30.925 14.5699 30.925 14.5297C30.925 14.4895 30.9316 14.4628 30.9316 14.4362C30.9383 14.4094 30.945 14.3893 30.9517 14.376C30.9584 14.3559 30.9717 14.3425 30.9784 14.3291C30.9984 14.3092 31.0185 14.2957 31.0453 14.2824C31.072 14.2757 31.0987 14.2691 31.1322 14.2691C31.1923 14.2691 31.2392 14.2824 31.2726 14.3159C31.306 14.3493 31.3261 14.3894 31.3394 14.4429H31.5802C31.56 14.3092 31.5066 14.2156 31.4264 14.1487C31.3461 14.0886 31.2458 14.0551 31.1322 14.0551C31.0653 14.0551 30.9984 14.0684 30.9517 14.0886C30.8981 14.1086 30.8514 14.142 30.8045 14.1821C30.7778 14.2156 30.7511 14.249 30.7377 14.2824C30.7176 14.3092 30.7043 14.3492 30.6976 14.3893C30.6909 14.4295 30.6842 14.4696 30.6842 14.5163V14.8373C30.6842 14.8842 30.6909 14.9243 30.6976 14.9644C30.7043 15.0045 30.7176 15.038 30.7377 15.0714C30.751 15.1049 30.7778 15.1382 30.8045 15.1716C30.8514 15.2117 30.8981 15.2452 30.9517 15.2652C30.9985 15.2853 31.0653 15.2986 31.1322 15.2986C31.2458 15.2986 31.3461 15.2652 31.4264 15.1984C31.5066 15.1382 31.56 15.0379 31.5802 14.9109H31.3394C31.3261 14.9643 31.306 15.0044 31.2726 15.0379Z" fill="#CECECF"/>
<path d="M32.4828 14.7572C32.5162 14.7505 32.543 14.737 32.5697 14.717C32.5965 14.6969 32.6233 14.6768 32.6433 14.6501C32.6633 14.6233 32.6768 14.59 32.6902 14.5565C32.6968 14.5364 32.7035 14.5097 32.7035 14.4829C32.7102 14.4696 32.7102 14.4494 32.7102 14.4362C32.7102 14.3893 32.6968 14.3358 32.6834 14.2957C32.6633 14.249 32.6366 14.2088 32.6031 14.1753C32.5697 14.1419 32.5296 14.1152 32.4761 14.0952C32.4494 14.0818 32.4294 14.075 32.3959 14.0684H32.3892C32.3625 14.0617 32.3358 14.0617 32.309 14.0617H31.8343V15.2853H32.0683V14.7972H32.2422L32.4829 15.2853H32.757L32.4828 14.7572ZM32.4227 14.5565C32.3892 14.5833 32.3491 14.6033 32.2957 14.6033H32.0683V14.2756H32.2957C32.3491 14.2756 32.3893 14.289 32.4227 14.3224C32.4561 14.3492 32.4695 14.3893 32.4695 14.4362C32.4695 14.4896 32.4561 14.5231 32.4227 14.5565Z" fill="#CECECF"/>
<path d="M33.8068 14.2757V14.0618H32.9977V15.2854H33.8068V15.0715H33.2384V14.7772H33.7199V14.5633H33.2384V14.2757H33.8068Z" fill="#CECECF"/>
<path d="M34.9636 14.4562C34.9636 14.4429 34.9569 14.4295 34.9569 14.4228C34.9569 14.3893 34.9435 14.3559 34.9368 14.3291C34.9235 14.2957 34.91 14.269 34.89 14.2423C34.8499 14.1821 34.7964 14.1353 34.7362 14.1085C34.6761 14.0818 34.6092 14.0618 34.5222 14.0618H34.0809V15.2854H34.5222C34.6091 15.2854 34.676 15.2721 34.7362 15.2453C34.7697 15.2319 34.7964 15.2118 34.8231 15.1918C34.8499 15.1717 34.87 15.145 34.89 15.1115C34.91 15.0848 34.9234 15.0581 34.9368 15.0246C34.9435 14.9978 34.9569 14.9645 34.9569 14.9311C34.9636 14.8976 34.9636 14.8574 34.9702 14.8174V14.5365C34.9636 14.5097 34.9636 14.483 34.9636 14.4562ZM34.7295 14.8039C34.7295 14.8373 34.7228 14.864 34.7228 14.8908C34.7161 14.9176 34.7161 14.9377 34.7095 14.951C34.7028 14.971 34.6893 14.9844 34.6827 14.9977C34.6427 15.0512 34.5825 15.0714 34.5022 15.0714H34.3217V14.2756H34.5022C34.5825 14.2756 34.6427 14.3024 34.6827 14.3559C34.6894 14.3692 34.7028 14.3827 34.7095 14.4027C34.7161 14.4161 34.7161 14.4362 34.7228 14.4628C34.7228 14.4895 34.7295 14.5163 34.7295 14.5497V14.8039Z" fill="#CECECF"/>
<path d="M35.2577 14.0618V15.2854H35.4918V14.0618H35.2577Z" fill="#CECECF"/>
<path d="M35.7325 14.0618V14.2757H36.0535V15.2854H36.2875V14.2757H36.6085V14.0618H35.7325Z" fill="#CECECF"/>
<path d="M37.8388 15.0379C37.8054 15.0714 37.7585 15.0848 37.6983 15.0848C37.6649 15.0848 37.6382 15.0781 37.6114 15.0646C37.5846 15.0579 37.5646 15.0378 37.5445 15.0245C37.5378 15.0111 37.5245 14.9977 37.5178 14.9777C37.5111 14.9643 37.5044 14.9442 37.4978 14.9176C37.4978 14.8908 37.4911 14.8574 37.4911 14.8239C37.4844 14.7838 37.4844 14.7371 37.4844 14.6769C37.4844 14.6166 37.4844 14.5699 37.4911 14.5297C37.4911 14.4896 37.4978 14.4628 37.4978 14.4362C37.5044 14.4094 37.5111 14.3894 37.5178 14.376C37.5245 14.356 37.5378 14.3425 37.5445 14.3292C37.5646 14.3092 37.5846 14.2958 37.6114 14.2824C37.6381 14.2757 37.6648 14.2691 37.6983 14.2691C37.7585 14.2691 37.8053 14.2824 37.8388 14.3159C37.8722 14.3493 37.8923 14.3895 37.9057 14.4429H38.1464C38.1264 14.3092 38.0728 14.2156 37.9926 14.1487C37.9123 14.0886 37.8121 14.0551 37.6984 14.0551C37.6315 14.0551 37.5647 14.0685 37.5112 14.0886C37.4644 14.1086 37.4109 14.142 37.3708 14.1821C37.3374 14.2156 37.3173 14.249 37.2972 14.2824C37.2838 14.3092 37.2705 14.3492 37.2638 14.3894C37.2571 14.4295 37.2504 14.4696 37.2504 14.5164V14.8373C37.2504 14.8842 37.2571 14.9244 37.2638 14.9644C37.2705 15.0045 37.2838 15.038 37.2972 15.0714C37.3172 15.1049 37.3373 15.1383 37.3708 15.1716C37.4108 15.2118 37.4644 15.2452 37.5112 15.2653C37.5647 15.2853 37.6315 15.2987 37.6984 15.2987C37.8122 15.2987 37.9124 15.2653 37.9926 15.1984C38.0728 15.1383 38.1264 15.0379 38.1464 14.9109H37.9057C37.8923 14.9643 37.8722 15.0044 37.8388 15.0379Z" fill="#CECECF"/>
<path d="M38.8952 14.0618H38.708L38.26 15.2854H38.5141L38.5877 15.0715H39.0223L39.0959 15.2854H39.3433L38.8952 14.0618ZM38.6546 14.8708L38.8084 14.4228L38.9554 14.8708H38.6546Z" fill="#CECECF"/>
<path d="M40.1857 14.7572C40.2191 14.7505 40.2458 14.737 40.2727 14.717C40.2994 14.6969 40.3262 14.6768 40.3462 14.6501C40.3663 14.6233 40.3796 14.59 40.3931 14.5565C40.4064 14.523 40.4131 14.4829 40.4131 14.4362C40.4131 14.3893 40.4064 14.3358 40.3864 14.2957C40.3663 14.249 40.3395 14.2088 40.3061 14.1753C40.2727 14.1419 40.2326 14.1152 40.1791 14.0952C40.1323 14.075 40.0789 14.0617 40.0187 14.0617H39.5372V15.2853H39.7779V14.7972H39.9451L40.1858 15.2853H40.4599L40.1857 14.7572ZM40.1255 14.5565C40.0921 14.5833 40.052 14.6033 39.9985 14.6033H39.7779V14.2756H39.9985C40.052 14.2756 40.0921 14.289 40.1255 14.3224C40.159 14.3492 40.1724 14.3893 40.1724 14.4362C40.1724 14.4896 40.159 14.5231 40.1255 14.5565Z" fill="#CECECF"/>
<path d="M41.5832 14.4228C41.5765 14.3893 41.5698 14.3559 41.5565 14.3291C41.5498 14.2957 41.5297 14.269 41.5164 14.2423C41.4695 14.1821 41.4161 14.1353 41.3559 14.1085C41.3024 14.0818 41.2289 14.0618 41.142 14.0618H40.7007V15.2854H41.142C41.2289 15.2854 41.3025 15.2721 41.3559 15.2453C41.416 15.2185 41.4695 15.1717 41.5164 15.1115C41.5297 15.0848 41.5498 15.0581 41.5565 15.0246C41.5698 14.9978 41.5765 14.9645 41.5832 14.9311C41.5832 14.8976 41.5899 14.8574 41.5899 14.8174V14.5365C41.5899 14.4963 41.5832 14.4562 41.5832 14.4228ZM41.3492 14.8039C41.3492 14.8373 41.3492 14.864 41.3425 14.8908C41.3425 14.9176 41.3359 14.9377 41.3292 14.951C41.3225 14.971 41.3158 14.9844 41.3024 14.9977C41.2623 15.0512 41.2021 15.0714 41.1218 15.0714H40.9413V14.2756H41.1218C41.2021 14.2756 41.2622 14.3024 41.3024 14.3559C41.3157 14.3692 41.3224 14.3827 41.3292 14.4027C41.3359 14.4161 41.3425 14.4362 41.3425 14.4628C41.3492 14.4895 41.3492 14.5163 41.3492 14.5497V14.8039Z" fill="#CECECF"/>
<path d="M41.7148 2.98121V7.69382C41.7148 7.88348 41.5597 8.03861 41.37 8.03861H35.5654C35.3758 8.03861 35.2206 7.88348 35.2206 7.69382V2.98121C35.2206 2.79154 35.3758 2.63641 35.5654 2.63641H41.37C41.5596 2.63633 41.7148 2.79154 41.7148 2.98121Z" fill="#F7D072"/>
<path opacity="0.2" d="M40.4398 3.77785L41.4495 2.76816H41.1218L40.2526 3.64408L40.1189 3.77785L40.0186 3.87145L39.3299 4.56016H37.8321L37.6984 4.42639L37.1434 3.87145L36.9227 3.64408L36.0468 2.76816H35.7192L36.5884 3.64408L36.7222 3.77785H35.3381V4.00513H36.9561L37.3841 4.43975L37.4977 4.56016V4.82752H35.338V5.06158H37.4977V5.88397H35.338V6.11125H37.4977V6.38538H37.5111L37.0898 6.80005L36.956 6.93382H35.338V7.16787H36.7221L35.8528 8.03711H36.1805L37.0497 7.16787L37.8321 6.38565H39.3298L40.9881 8.0372H41.309L40.4398 7.16796H41.7168V6.93391H40.2124L39.6641 6.38565V6.11152H41.7169V5.88423H39.6641V5.06184H41.7169V4.82779H39.6641V4.56042L40.2124 4.00539H41.7168V3.77811H40.4398V3.77785ZM39.4369 6.15151H37.7251V4.78753H39.4369V6.15151Z" fill="white"/>
<path d="M37.7184 4.42639L37.9458 4.65368H38.9889L39.0825 4.56016L39.2162 4.42639H37.7184ZM37.7184 4.42639L37.9458 4.65368H38.9889L39.0825 4.56016L39.2162 4.42639H37.7184ZM37.7184 4.42639L37.9458 4.65368H38.9889L39.0825 4.56016L39.2162 4.42639H37.7184ZM37.7184 4.42639L37.9458 4.65368H38.9889L39.0825 4.56016L39.2162 4.42639H37.7184ZM39.1225 6.15151L38.9889 6.01783H37.9458L37.8188 6.15151H37.8121L37.7185 6.25179H39.2162L39.1225 6.15151ZM37.7184 4.42639L37.9458 4.65368H38.9889L39.0825 4.56016L39.2162 4.42639H37.7184ZM37.3841 4.42639V6.25179H39.5505V4.42639H37.3841ZM39.3231 6.01783H37.6113V4.65376H39.3231V6.01783ZM37.7184 4.42639L37.9458 4.65368H38.9889L39.0825 4.56016L39.2162 4.42639H37.7184ZM37.7184 4.42639L37.9458 4.65368H38.9889L39.0825 4.56016L39.2162 4.42639H37.7184ZM37.7184 4.42639L37.9458 4.65368H38.9889L39.0825 4.56016L39.2162 4.42639H37.7184ZM37.7184 4.42639L37.9458 4.65368H38.9889L39.0825 4.56016L39.2162 4.42639H37.7184ZM37.7184 4.42639L37.9458 4.65368H38.9889L39.0825 4.56016L39.2162 4.42639H37.7184ZM37.7184 4.42639L37.9458 4.65368H38.9889L39.0825 4.56016L39.2162 4.42639H37.7184Z" fill="#717070"/>
<path d="M36.9346 3.64182L37.1645 3.87174H35.2206V3.64182H36.9346Z" fill="#717070"/>
<path d="M41.7148 3.64178V3.87171H39.7709L40.0007 3.64178H41.7148Z" fill="#717070"/>
<path d="M37.6128 4.69553H35.2206V4.92545H37.6128V4.69553Z" fill="#717070"/>
<path d="M41.7147 4.69553H39.3225V4.92545H41.7147V4.69553Z" fill="#717070"/>
<path d="M37.6128 5.74933H35.2206V5.97925H37.6128V5.74933Z" fill="#717070"/>
<path d="M41.7147 5.7493H39.3225V5.97922H41.7147V5.7493Z" fill="#717070"/>
<path d="M37.1648 6.80264L36.9349 7.03256H35.2206V6.80264H37.1648Z" fill="#717070"/>
<path d="M41.7148 6.80264V7.03256H40.0004L39.7706 6.80264H41.7148Z" fill="#717070"/>
<path d="M37.9478 6.01971L35.9291 8.03839H35.6042L37.6229 6.01971H37.9478Z" fill="#717070"/>
<path d="M41.3315 2.63611L39.3128 4.65478H38.9879L41.0065 2.63611H41.3315Z" fill="#717070"/>
<path d="M37.9476 4.65478H37.6226L35.6039 2.63611H35.9289L37.9476 4.65478Z" fill="#717070"/>
<path d="M41.3312 8.03839H41.0062L39.2174 6.24964L39.1217 6.15392L38.9875 6.01971H39.3125L39.4375 6.1447L39.5424 6.24964L39.6674 6.37462L40.0955 6.80273L40.2297 6.93694L40.3255 7.03265L40.4597 7.16686L41.3312 8.03839Z" fill="#717070"/>
<path d="M6.945 4.6955C6.945 3.97603 7.24172 3.32616 7.71896 2.86052C7.25683 2.40964 6.62543 2.13138 5.92881 2.13138C4.51262 2.13138 3.36469 3.27941 3.36469 4.6955C3.36469 6.11168 4.51271 7.25962 5.92881 7.25962C6.62552 7.25962 7.25692 6.98136 7.71896 6.53048C7.24172 6.06492 6.945 5.41497 6.945 4.6955Z" fill="#DC3B39"/>
<path d="M9.50915 2.13135C8.81244 2.13135 8.18112 2.40961 7.71899 2.86049C8.19624 3.32613 8.49296 3.976 8.49296 4.69547C8.49296 5.41494 8.19624 6.06481 7.71899 6.53045C8.18112 6.98133 8.81253 7.25959 9.50915 7.25959C10.9253 7.25959 12.0733 6.11156 12.0733 4.69547C12.0733 3.27938 10.9252 2.13135 9.50915 2.13135Z" fill="#E6AB2D"/>
<path d="M8.49295 4.69558C8.49295 3.9761 8.19623 3.32624 7.71899 2.8606C7.24174 3.32624 6.94502 3.9761 6.94502 4.69558C6.94502 5.41505 7.24174 6.06491 7.71899 6.53056C8.19623 6.065 8.49295 5.41505 8.49295 4.69558Z" fill="#D67261"/>
<path d="M8.49287 4.69544C8.49287 4.6413 8.49068 4.58769 8.48734 4.53434L7.31769 3.36478C7.232 3.50549 7.15931 3.65499 7.10165 3.81188L8.4499 5.16012C8.47758 5.0093 8.49287 4.85426 8.49287 4.69544Z" fill="#E6AB2D"/>
<path d="M6.97108 4.33267C6.95429 4.45124 6.94498 4.57226 6.94498 4.6954C6.94498 4.79383 6.95104 4.89087 6.96185 4.9864L8.07393 6.09848C8.1634 5.96216 8.24013 5.81688 8.30262 5.66413L6.97108 4.33267Z" fill="#E6AB2D"/>
<path opacity="0.2" d="M45 16.3551H0V16.9168H45V16.3551Z" fill="#040000"/>
<path opacity="0.2" d="M45 1.43095V29.1398C45 29.9288 44.3514 30.5773 43.5624 30.5773H7.21471L14.3693 23.4228L14.6032 23.1888L14.8707 22.9214L15.0512 22.7409L18.7756 19.0165L18.9695 18.8226V18.8159L19.0965 18.6955L19.1098 18.6821L19.6782 18.1071L19.8587 17.9333L20.8751 16.9169L21.4368 16.3552L27.4479 10.3441L29.3803 8.41184L37.6715 0.113818L37.7853 0H43.5624C44.3514 0 45 0.641865 45 1.43095Z" fill="#040000"/>
<defs>
<linearGradient id="paint0_linear_1_492" x1="22.5" y1="0.113621" x2="22.5" y2="30.691" gradientUnits="userSpaceOnUse">
<stop stop-color="#44484A"/>
<stop offset="1" stop-color="#193741"/>
</linearGradient>
</defs>
</svg>
