<svg width="36" height="22" viewBox="0 0 36 22" fill="none" xmlns="http://www.w3.org/2000/svg">
<path d="M22.2627 19.3474H12.7851V2.31545H22.2627V19.3474Z" fill="#FF5F00"/>
<path d="M13.3869 10.8313C13.3869 7.37618 15.005 4.29924 17.524 2.3161C15.6168 0.811956 13.2584 -0.00291285 10.8313 7.82397e-06C4.84832 7.82397e-06 0 4.84979 0 10.8313C0 16.8129 4.84832 21.6627 10.8299 21.6627C13.2584 21.6656 15.6168 20.8507 17.5226 19.3466C15.005 17.3634 13.3869 14.2865 13.3869 10.8313Z" fill="#EB001B"/>
<path d="M35.048 10.8313C35.048 16.8129 30.1996 21.6627 24.2181 21.6627C21.7896 21.6656 19.4311 20.8507 17.5239 19.3466C20.043 17.3634 21.6611 14.2865 21.6611 10.8313C21.6611 7.37618 20.043 4.29924 17.5239 2.3161C19.4311 0.811956 21.7896 -0.00291285 24.2181 7.82397e-06C30.1996 7.82397e-06 35.048 4.84979 35.048 10.8313Z" fill="#F79E1B"/>
</svg>
