<svg width="75" height="19" viewBox="0 0 75 19" fill="none" xmlns="http://www.w3.org/2000/svg">
<path d="M13.6837 1.43C12.8056 0.429092 11.2182 -1.90735e-05 9.18753 -1.90735e-05H3.29382C3.0928 -0.000125885 2.89834 0.071516 2.74543 0.202015C2.59253 0.332514 2.49122 0.5133 2.45973 0.711842L0.00677755 16.2768C-0.00459645 16.349 -0.000181799 16.4228 0.0197176 16.4931C0.039617 16.5635 0.0745281 16.6287 0.122045 16.6842C0.169563 16.7398 0.228557 16.7843 0.294963 16.8149C0.36137 16.8454 0.43361 16.8612 0.506707 16.8612H4.14522L5.05905 11.065L5.03072 11.2465C5.0616 11.0484 5.16224 10.8678 5.31449 10.7373C5.46674 10.6068 5.6606 10.5349 5.86114 10.5347H7.59017C10.9869 10.5347 13.6465 9.15503 14.4234 5.16399C14.4465 5.04596 14.4664 4.93108 14.4837 4.81881C14.7146 3.34368 14.4822 2.33963 13.6843 1.43052" fill="#003087"/>
<path d="M58.2272 8.83663C58.0048 10.2971 56.8895 10.2971 55.8109 10.2971H55.1972L55.6279 7.57028C55.6541 7.40557 55.7957 7.28439 55.9625 7.28439H56.2443C56.9787 7.28439 57.6722 7.28439 58.0299 7.70248C58.2434 7.95271 58.308 8.32411 58.2272 8.83663ZM57.7577 5.02605H53.689C53.5542 5.02612 53.4239 5.07421 53.3214 5.1617C53.219 5.24919 53.151 5.37035 53.1298 5.50342L51.4857 15.9358C51.4782 15.9842 51.4812 16.0336 51.4945 16.0807C51.5078 16.1278 51.5312 16.1715 51.563 16.2087C51.5948 16.2459 51.6342 16.2759 51.6787 16.2964C51.7231 16.3169 51.7715 16.3276 51.8204 16.3277H53.9083C54.1029 16.3277 54.2687 16.1861 54.2991 15.9941L54.766 13.0354C54.809 12.761 55.0461 12.558 55.3241 12.558H56.6115C59.2921 12.558 60.8386 11.2618 61.2425 8.6908C61.4245 7.56714 61.2498 6.68374 60.7237 6.06525C60.1451 5.38539 59.1195 5.02553 57.7582 5.02553" fill="#009CDE"/>
<path d="M29.2071 8.83667C28.9847 10.2971 27.8694 10.2971 26.7904 10.2971H26.1766L26.6073 7.57033C26.6335 7.40561 26.7752 7.28443 26.942 7.28443H27.2237C27.9581 7.28443 28.6516 7.28443 29.0094 7.70252C29.2234 7.95275 29.2879 8.32415 29.2071 8.83667ZM28.7376 5.02609H24.6689C24.3909 5.02609 24.1538 5.22858 24.1103 5.50346L22.4657 15.9359C22.458 15.9843 22.461 16.0337 22.4743 16.0809C22.4876 16.128 22.5109 16.1717 22.5427 16.2089C22.5745 16.2462 22.614 16.2761 22.6585 16.2966C22.703 16.3171 22.7514 16.3277 22.8004 16.3277H24.7434C25.0215 16.3277 25.2581 16.1253 25.3016 15.8504L25.7459 13.036C25.7889 12.7611 26.026 12.5586 26.3041 12.5586H27.5914C30.272 12.5586 31.8185 11.2618 32.2224 8.69084C32.4045 7.56718 32.2298 6.68378 31.7036 6.06529C31.125 5.38543 30.0994 5.02557 28.7381 5.02557M38.1838 12.5822C37.995 13.6954 37.1121 14.4429 35.9848 14.4429C35.4198 14.4429 34.9671 14.2609 34.6764 13.9168C34.3879 13.5758 34.2799 13.0895 34.3711 12.5486C34.5463 11.4449 35.4444 10.6738 36.5545 10.6738C37.1079 10.6738 37.5564 10.8574 37.8533 11.2046C38.1518 11.5545 38.2693 12.0435 38.1838 12.5822ZM40.8991 8.78946H38.9508C38.8698 8.78937 38.7914 8.81824 38.7298 8.87086C38.6683 8.92348 38.6275 8.99639 38.615 9.07641L38.53 9.62093L38.3937 9.42369C37.9719 8.81149 37.0313 8.60638 36.0923 8.60638C33.9399 8.60638 32.1013 10.2378 31.7435 12.525C31.5573 13.667 31.8217 14.7577 32.469 15.5188C33.0633 16.2181 33.9116 16.5092 34.9225 16.5092C36.6578 16.5092 37.6199 15.395 37.6199 15.395L37.5328 15.9364C37.5251 15.9848 37.5281 16.0343 37.5414 16.0815C37.5547 16.1287 37.5781 16.1724 37.61 16.2097C37.6419 16.2469 37.6814 16.2768 37.726 16.2973C37.7705 16.3178 37.819 16.3283 37.868 16.3283H39.6222C39.9003 16.3283 40.1374 16.1263 40.1809 15.8509L41.2343 9.18185C41.2419 9.1334 41.2388 9.08388 41.2255 9.0367C41.2121 8.98952 41.1886 8.94581 41.1567 8.90857C41.1248 8.87132 41.0852 8.84144 41.0406 8.82097C40.9961 8.8005 40.9476 8.78993 40.8985 8.78999" fill="#003087"/>
<path d="M67.2039 12.5822C67.015 13.6954 66.1322 14.4429 65.0048 14.4429C64.4399 14.4429 63.9871 14.2609 63.6965 13.9167C63.408 13.5758 63.2999 13.0895 63.3912 12.5486C63.5664 11.4449 64.464 10.6738 65.5745 10.6738C66.128 10.6738 66.5765 10.8574 66.8734 11.2046C67.1719 11.5545 67.2894 12.0435 67.2039 12.5822ZM69.9191 8.78946H67.9708C67.8898 8.78936 67.8115 8.81823 67.7499 8.87086C67.6883 8.92348 67.6476 8.99639 67.6351 9.07641L67.5501 9.62093L67.4137 9.42368C66.992 8.81149 66.0514 8.60638 65.1124 8.60638C62.9605 8.60638 61.1219 10.2378 60.7636 12.525C60.5773 13.667 60.8423 14.7577 61.4896 15.5188C62.0839 16.2181 62.9322 16.5092 63.9431 16.5092C65.6789 16.5092 66.641 15.395 66.641 15.395L66.5539 15.9364C66.5461 15.9848 66.5489 16.0343 66.5621 16.0814C66.5753 16.1286 66.5986 16.1724 66.6303 16.2096C66.6621 16.2469 66.7017 16.2768 66.7462 16.2973C66.7907 16.3178 66.8391 16.3284 66.8881 16.3283H68.6418C68.9198 16.3283 69.1569 16.1263 69.201 15.8509L70.2543 9.18185C70.2619 9.1334 70.2589 9.08388 70.2455 9.0367C70.2321 8.98952 70.2087 8.94581 70.1768 8.90857C70.1449 8.87132 70.1053 8.84144 70.0607 8.82097C70.0161 8.8005 69.9676 8.78993 69.9186 8.78999" fill="#009CDE"/>
<path d="M51.276 8.78994H49.3172C49.1299 8.78994 48.9552 8.88279 48.8503 9.03807L46.1487 13.0165L45.0036 9.19335C44.9686 9.07673 44.897 8.97448 44.7994 8.90173C44.7018 8.82897 44.5834 8.78959 44.4617 8.78942H42.537C42.483 8.78944 42.4298 8.80234 42.3818 8.82704C42.3338 8.85173 42.2924 8.88752 42.261 8.93143C42.2296 8.97533 42.2092 9.02609 42.2013 9.07948C42.1935 9.13288 42.1985 9.18738 42.2159 9.23846L44.372 15.5681L42.3439 18.4297C42.3081 18.4805 42.2869 18.5402 42.2826 18.6022C42.2784 18.6642 42.2912 18.7262 42.3198 18.7814C42.3484 18.8366 42.3916 18.8829 42.4447 18.9152C42.4978 18.9476 42.5587 18.9647 42.6209 18.9648H44.5776C44.7622 18.9648 44.9359 18.874 45.0418 18.7219L51.554 9.32239C51.5894 9.27159 51.6102 9.21206 51.6141 9.15028C51.618 9.08851 51.6049 9.02684 51.5763 8.97197C51.5476 8.9171 51.5045 8.87112 51.4516 8.83903C51.3986 8.80694 51.3379 8.78996 51.276 8.78994Z" fill="#003087"/>
<path d="M72.2154 5.31302L70.5451 15.9364C70.5376 15.9848 70.5406 16.0343 70.5539 16.0814C70.5673 16.1285 70.5907 16.1722 70.6225 16.2095C70.6544 16.2467 70.6939 16.2766 70.7384 16.2971C70.7829 16.3176 70.8313 16.3282 70.8803 16.3282H72.5595C72.8376 16.3282 73.0747 16.1258 73.1182 15.8509L74.7649 5.41794C74.7726 5.36951 74.7696 5.32001 74.7563 5.27283C74.743 5.22565 74.7196 5.18192 74.6877 5.14467C74.6558 5.10741 74.6163 5.07752 74.5717 5.05704C74.5272 5.03657 74.4787 5.026 74.4297 5.02607H72.5506C72.4697 5.02587 72.3915 5.05464 72.33 5.10719C72.2685 5.15973 72.2278 5.23309 72.2154 5.31302Z" fill="#009CDE"/>
<path d="M13.6837 1.43C12.8056 0.429092 11.2182 -1.90735e-05 9.18753 -1.90735e-05H3.29382C3.0928 -0.000125885 2.89834 0.071516 2.74543 0.202015C2.59253 0.332514 2.49122 0.5133 2.45973 0.711842L0.00677755 16.2768C-0.00459645 16.349 -0.000181799 16.4228 0.0197176 16.4931C0.039617 16.5635 0.0745281 16.6287 0.122045 16.6842C0.169563 16.7398 0.228557 16.7843 0.294963 16.8149C0.36137 16.8454 0.43361 16.8612 0.506707 16.8612H4.14522L5.05905 11.065L5.03072 11.2465C5.0616 11.0484 5.16224 10.8678 5.31449 10.7373C5.46674 10.6068 5.6606 10.5349 5.86114 10.5347H7.59017C10.9869 10.5347 13.6465 9.15503 14.4234 5.16399C14.4465 5.04596 14.4664 4.93108 14.4837 4.81881C14.7146 3.34368 14.4822 2.33963 13.6843 1.43052" fill="#003087"/>
<path d="M6.04054 4.83823C6.06811 4.66475 6.15661 4.50677 6.29015 4.39265C6.42369 4.27853 6.59353 4.21574 6.76919 4.21555H11.3897C11.9369 4.21555 12.4473 4.25122 12.9136 4.32571C13.1686 4.36673 13.4209 4.42314 13.669 4.49463C13.9509 4.57386 14.2236 4.68252 14.4827 4.81882C14.7145 3.34317 14.4816 2.33964 13.6837 1.43001C12.8051 0.429623 11.2182 0.000511169 9.18752 0.000511169H3.29329C3.09245 0.000654221 2.89824 0.0724106 2.74555 0.202887C2.59286 0.333363 2.4917 0.514011 2.46025 0.712374L0.00624246 16.2757C-0.00520852 16.3479 -0.000869298 16.4218 0.0189614 16.4921C0.0387921 16.5625 0.0736426 16.6277 0.121111 16.6833C0.16858 16.7389 0.227539 16.7836 0.293924 16.8142C0.360309 16.8448 0.432542 16.8606 0.505647 16.8607H4.14469L5.05852 11.064L6.04054 4.83823Z" fill="#003087"/>
<path d="M14.4831 4.81831C14.4651 4.93373 14.445 5.04881 14.4228 5.16349C13.6459 9.154 10.9862 10.5342 7.58955 10.5342H5.86C5.65949 10.5343 5.46564 10.6062 5.31345 10.7367C5.16127 10.8672 5.06077 11.0479 5.0301 11.246L4.1446 16.8602L3.8928 18.4528C3.88279 18.516 3.88661 18.5807 3.904 18.6423C3.92138 18.7039 3.95192 18.761 3.99351 18.8097C4.03509 18.8583 4.08674 18.8974 4.14489 18.9242C4.20303 18.951 4.26629 18.9648 4.33031 18.9648H7.39755C7.76057 18.9648 8.06902 18.7004 8.1262 18.3421L8.1561 18.1858L8.73419 14.5221L8.77092 14.3196C8.7984 14.146 8.88695 13.9879 9.02062 13.8737C9.15429 13.7596 9.32431 13.6969 9.50009 13.6969H9.9591C12.9303 13.6969 15.2569 12.4904 15.9367 8.99873C16.22 7.54038 16.0731 6.32177 15.323 5.46618C15.0848 5.20091 14.8002 4.98136 14.4831 4.81831Z" fill="#009CDE"/>
<path d="M13.6695 4.49466C13.5509 4.45951 13.4287 4.42804 13.3028 4.40024C13.1769 4.37243 13.0468 4.34778 12.9136 4.32679C12.4467 4.25073 11.9368 4.21506 11.3891 4.21506H6.76911C6.59326 4.21484 6.42313 4.27756 6.28949 4.39186C6.15585 4.50616 6.06752 4.6645 6.04047 4.83826L5.05844 11.0651L5.03012 11.2461C5.06078 11.0479 5.16128 10.8673 5.31347 10.7367C5.46566 10.6062 5.6595 10.5343 5.86001 10.5342H7.58956C10.9862 10.5342 13.6459 9.15454 14.4228 5.16351C14.4459 5.04547 14.4653 4.93112 14.4831 4.81833C14.278 4.71097 14.0642 4.62079 13.8442 4.54869C13.787 4.52981 13.7288 4.5125 13.6695 4.49466Z" fill="#012169"/>
</svg>
